/* XPM */
static char *_2626f53ed4a4e92bed070aaa92df655HW4WEbTla8ZjpVT0[] = {
/* columns rows colors chars-per-pixel */
"64 65 89 1 ",
"  c #0B0C07",
". c #0D0E08",
"X c #0F1009",
"o c #13150B",
"O c #16190D",
"+ c #191C0F",
"@ c #151711",
"# c #171912",
"$ c #1B1E11",
"% c #1E2112",
"& c #1E2119",
"* c #222514",
"= c #252A16",
"- c #282C17",
"; c #22251C",
": c #262B1A",
"> c #292E19",
", c #2D321B",
"< c #2F381F",
"1 c #31361D",
"2 c #33391F",
"3 c #1F2023",
"4 c #202123",
"5 c #272A20",
"6 c #2A2D21",
"7 c #2D3122",
"8 c #2E3920",
"9 c #323522",
"0 c #353C21",
"q c #393E23",
"w c #373A28",
"e c #3A3D29",
"r c #374124",
"t c #3B4324",
"y c #3E4826",
"u c #3D442A",
"i c #3E4A29",
"p c #404626",
"a c #404927",
"s c #41462B",
"d c #424C2A",
"f c #45512D",
"g c #49522D",
"h c #454A30",
"j c #4A4F32",
"k c #475530",
"l c #4C5433",
"z c #4E5C33",
"x c #4F5438",
"c c #505637",
"v c #505B32",
"b c #515837",
"n c #535C36",
"m c #565E37",
"M c #505539",
"N c #515838",
"B c #565F39",
"V c #555C3A",
"C c #545A3E",
"Z c #545C3F",
"A c #585E3B",
"S c #55673A",
"D c #5A653B",
"F c #59633D",
"G c #5B643E",
"H c #5D653F",
"J c #5E683E",
"K c #636F3F",
"L c #585F40",
"P c #596142",
"I c #5B6542",
"U c #5C6442",
"Y c #5D6443",
"T c #5D6345",
"R c #5D6843",
"E c #616A43",
"W c #626947",
"Q c #616C45",
"! c #676F45",
"~ c #636B48",
"^ c #647041",
"/ c #657540",
"( c #6E774E",
") c #6E7B4D",
"_ c #6F7C4C",
"` c #707B4F",
"' c #758550",
"] c #7B8C56",
"[ c #7F8F59",
/* pixels */
"66;;;;&;66;;;;;&;65;;;;5665;;;6665;;;;;777;;;;;;;5;;;&;;:75;;;7;",
"0,,qq1$=2-,0t-$$=*>tu,*=,=1ds0-<0-,tt1*20-,0q:$%=*-qq-*=-=0ds1-*",
"0:gBNl,*,=vDHj>+$%sxBk,$%:gJHk,=<-gBBl,,-:lBFd:$+*sxBd>%$,lHGd:O",
"<:nQUBu*%-/')Hw#+*dZUBq$+-m)!Mw*:>BQQFq*$<K_)G9$+:jLUMw%+9H)Qc9o",
"**kRZxu$$,/][Ee$+-sCTMq$$-B`Wxq%%:kILN0$O1^'[Q0$O,dPWNq*$0H(~M9o",
"%Ooqh#*$*%$dB%:*=%owu#*$*#$ds#*$$Ooue#*%*$$xk%-=:$oue#:**$%xe$;o",
"*# :qX$=-% :9.%=-+ :9.***O :> %*%O ,9.*=:# >,.=<,o >,.:--o ,:.*O",
"**uq0d,=-:s09s>*,*090d1*=*q,9u>%**q1qs>-=>d70s--<*q,qd9<,>q>qt-O",
"-=<B!j*,1*0FZs%-<%9BZy$--+1xMu$%:$9B!s*,<*qFFu%<2%0cBq*qr%qBZw%$",
"<0-xHt>11,=lNt-<,*-BHu**=$;hh0%%,-:bAq112-:cN0-<<*>NB0-10*,jj9=$",
"20%,t:,122%,t-=,,=$1y-==$%+:9*$%,,$90=22t0%9q==,,=$9t:11,:$,0*=+",
"tr-%=*,,1q,:,=,<,,**:=1-%%$%=%=-02*%**110y,:,*--,<**:=00,=%*:*<*",
"r0<=%1,-,yt1-,<12,=%%-1-**=*+*-,2,-*%1,,0fi,,<=-0,=%*,0<---%*,0:",
"0000<0--2y1qt1-<<-===,-***--==-:-:,,-2,-tf02t1=-1-==,,<==-,,,<0=",
"yt0tta2122-001-,-=*==-=**=*-=-,-<<,<0p1100,121=*=-=,,,-=-,=>-10:",
"iiiitt121<,22,,:-*==*=*$==*,>q2120<<0t1220,,,,-*==--====--*-,tt<",
":8ur,:==*=*==*%**$%$O+OO%$%==21=%:,:===**=****%%%+%%O+$$*%%*=20=",
",>::%%++%=%$**+%=%+OO$++$$%-,:,=**%$+$Oo%=++**+%%%$O+%$+%++==-0*",
"dft8,<==,0<,21-<t0,=,1-,<1qpdgldq0,==-**,0=-1<-2tt,*,<,,1,1qpgDy",
"ki0>:,=*=,=,,=-<r2::,2-,1-012ttd01=**-**=-*===-<02==,1=-1-1>1tlf",
"zir<:-=%=,=-,<<,0t02,,,,,1t0112qt2,=*=*%:-*==<,<0t2,,,,-,<2,,2dr",
"diy0<,=%***=,<1<tytt<<<0,10001tt022-,=%%**%*=21<tyr<,122,,1,,qzr",
"iiy021,==**=-,2<tdiy21,0t0tt0020202,,,-==%%*=,<<0id022<tt22210d0",
"dift<,<:=*-==--00idtq<1tytyy002qt0t2=-,=-==*=-=,1idty22yyyyt0qd1",
"iiktr<,=*-2:,,=<2it00<2tr0ydy21yt0y02:==:<<=,:=-,y0qt0tyttddstd0",
"yiktr2:==,<,,--<0t0ty1201,0dt,-yttt00<==-0<<,,,,102yf0ii01dfd200",
"dSz0<<:=-,<200--2y22tt0q0021q2-1tgy<2<-,122020,=,0,0diiir0t0yt0-",
"fzzt-:==:-<0t2*=<t1,2210ty2qyt11tdi2,>=,2220t0=*,1,<yyyqtytyyd0=",
"dit0,:-=-1t20<%=<21---1tt2,y0200q222<,,,tddt0<*=,11,<<ttq10d0t0=",
"dy02,-=-,ta<,-$=,,<-==,tt0,q<<00t2,,<<:,0zft,-%=-,1,,<0tt20t,10=",
"012<20<<,22=***==,,=%=-120,,,2y0,,,,2r<<2d0,=*===,1>:<20qt1,,td-",
"<12,0r<<,,2-*====,,=**=,112,<qt0,,<,20,2102<=-,:-<1---,<200,1yt-",
"%%%%*%+%$%*++++O$*%$+++%*==*****%%%$%%+%*=*%%%%+%**%$$$%*==***:O",
",q2==,-=,,0,=%%*$%*$*%%*-,<<,-**-2-**,=-,<2,:***+%*%****=-,,,,=+",
"yay<,0<010dyt2=-==-=,-=-,yy02,==0t1--<,r2tfyt2======,-,,-yt22,,%",
"q02,:,<,=<att<=--,===*=,2t00-*=-01-==:,,,0dyt,**==*==*-,2021-*-%",
",<:=%==**,t0i0,,,2=***=,20t2-***,-**$*=:-2qty,===,*==*=,0201=**+",
"*=,-=--==-1,0rt0q2:==*-,,11-==****=-=--,<12,<<2,1-===*-,,,,===*O",
"*=<111-===,,,<2,1,<1,,20,--====**=<11,-<2<,==-,-,-,<<<11,-=**=*O",
"*=--11--==-<-<=*<t1<<,202<----=*=-,,1,,2<,,=*:*=10<<<<,11,====*O",
"=1,-112,---2,2<--<00r<202,--=,=*<01,212,1<,,=,-,-1000,,11--=*=*o",
"-21,,1t1,,-1102-==,0y02<--,==,**2t21,1t12q,,,1,,,-<0y0,-,-=**-%o",
",,,--,q,,,<000-=--12r022*-1-<,*=0<,---212q211,=,,,<<01,,=--*,-%o",
"<,-*=<0--,2t21-*-,,<<20,=*,,,,-<t0,*=,1,1t011---,<,-=,,,=*-=--=%",
"=====2,*-120,-**-==-<<1-*=1,=-<<<,:*=,--2y212-=-,-===---*=1-=-=$",
"=:=,2y<=,,-,,=$%*==,,,--=-,1>,,-,,-=,1--10=,0,*=-==-=-=*=-,,--*+",
"1<-,0a2,,===**%%*==,:,--=-=>>,,,2<-,<2,,2<=-,,**==*-=-=*=-*>-,=$",
",<<<,<--=*=*%%%%*%=,***=-==-,q2<,<,,-,,,,,==--=**%==%***-==-,q,%",
"OO%+O+OoooooooXoooOOooooOOo++**%O+%+OO+O++ooOOoOooOoooooOoO+$*%o",
",-***=%+==%+**%%%=======--=1qty02,=***%%-,%*--%=,,=*==--,--2q0q=",
"1,=**=*%*=*$***=:,==-,=-,-11tfddt2=*==**=-%*==*,1<=*,,--,-11qpp,",
"t,=**=*$%%%%%***-2<,--=-,-2,2tqgt<=**=*%*=$**=:,,<-,,,=-,=1-1121",
"0,-=***%$%%$%=**,tt2==,,-,2,,1yyt1-=***%**%**,-,2r21--,-=>1--,0=",
",-,:-=*%+++$%==*,tit-,<2020,,2dd,,-===*%$++**-,=2tt2>,,1>>,,,1t-",
",,1,==-*%$%%$*==,ydt10<2dtt1>,0t2,,=*=-**+**%=--<0t21,-1211,>,1=",
"1,t1-=,=**-%%**=-tdtq022ttyq12qt2,2-**==**=%*%*,-0t21<,112q2222-",
"1,q<2,===-,=****-t2q00021-0yt11t2,2,-=**=,-**%*-,2,2112<,-0tq,2,",
"10t,2<==-,,-*==*,t0ra000<-2tt1-t2t0,,,==-,--==--<0,2q11,,,22q,,-",
"0py,=:=:,-,,==*$-t22tq12011<q0>,tdt-=:==,--,,=**,2=-111,<21,q0,*",
"+$$oooooooooooX o$OoO+ooO+o+O$oo+$+oooooooooooX.oOoooOooo+oO+$oX",
"#e7oO9*X#s,oow;.oe>ooe>O$9%O$u;o%e*o#w%o$h>o$w$.#e*.$e*o%9$O*u*X",
"$w7++7;O$u>+O7;oow>$Ow>$$w*+$w:%%w;+$9%+%s>O$9$o#9*o#w*+*w%$%e:O",
"+,:O$7*+O7*Oo:*oo9:$o>*+$9*+#w=%$9*$%9*%$9*OO6$oO9$oo6$+$9$+$q*+",
"$;*%$;$$$;$$#;$@#;;$$;$$$;&%#6%%$5&%$;$%$;%$#;$##;$##;$$$5%%$6%#",
"4344443444444433444444444444434443444434444444343444444444444444"
};
