/* XPM */
static char *_c86ad9b1a8e4db787f321a7e41fbb9b9HW8BUVJGBbxgAO0[] = {
/* columns rows colors chars-per-pixel */
"64 64 220 2 ",
"   c #080503",
".  c #0C0906",
"X  c #160E09",
"o  c #190F08",
"O  c #15110D",
"+  c #1B120A",
"@  c #1D1B0F",
"#  c #171713",
"$  c #1D1B13",
"%  c #3A0A05",
"&  c #3D0B06",
"*  c #3F0E09",
"=  c #22150B",
"-  c #2B140A",
";  c #241A0E",
":  c #2D1C0D",
">  c #341309",
",  c #3C150D",
"<  c #321C0D",
"1  c #3C1A0F",
"2  c #241D13",
"3  c #2C1E12",
"4  c #201E18",
"5  c #3C1711",
"6  c #331E11",
"7  c #3D1C11",
"8  c #24200F",
"9  c #2B210E",
"0  c #252315",
"q  c #2B2413",
"w  c #272A16",
"e  c #2C2B15",
"r  c #252319",
"t  c #2B2519",
"y  c #272A1B",
"u  c #2C2B1B",
"i  c #332413",
"p  c #3B2516",
"a  c #332A16",
"s  c #332519",
"d  c #392718",
"f  c #332C1C",
"g  c #3B2C1B",
"h  c #2C3117",
"j  c #2E321B",
"k  c #293A19",
"l  c #33331D",
"z  c #3A321D",
"x  c #34381F",
"c  c #2C2D22",
"v  c #2B2C24",
"b  c #322E21",
"n  c #3B2E21",
"m  c #2E3222",
"M  c #343322",
"N  c #3B3523",
"B  c #353A23",
"V  c #3B3B25",
"C  c #35342A",
"Z  c #3B3629",
"A  c #36392F",
"S  c #3C3D2A",
"D  c #3A3B31",
"F  c #430303",
"G  c #430906",
"H  c #440E0A",
"J  c #480C0A",
"K  c #44120D",
"L  c #49120E",
"P  c #4A1611",
"I  c #451B12",
"U  c #441B15",
"Y  c #4B1C15",
"T  c #501C16",
"R  c #422216",
"E  c #452519",
"W  c #4A251B",
"Q  c #442C1D",
"!  c #4A281C",
"~  c #43321F",
"^  c #412F20",
"/  c #4B2D21",
"(  c #532E22",
")  c #443423",
"_  c #4B3525",
"`  c #433A26",
"'  c #4B3A26",
"]  c #4A3528",
"[  c #423D2A",
"{  c #4B3C2A",
"}  c #523226",
"|  c #583A27",
" . c #553428",
".. c #523D2C",
"X. c #423F31",
"o. c #3B4127",
"O. c #3A4527",
"+. c #3D432A",
"@. c #3E4432",
"#. c #454127",
"$. c #43432C",
"%. c #4A442E",
"&. c #43492E",
"*. c #48492F",
"=. c #53412E",
"-. c #434532",
";. c #4B4532",
":. c #454B32",
">. c #4B4C34",
",. c #44453A",
"<. c #474C3A",
"1. c #4C4D3A",
"2. c #554533",
"3. c #5A4632",
"4. c #524B35",
"5. c #5A4936",
"6. c #534E39",
"7. c #5A4E3A",
"8. c #475234",
"9. c #4B5136",
"0. c #4E5339",
"q. c #505037",
"w. c #52543C",
"e. c #5A543D",
"r. c #53593E",
"t. c #5A583F",
"y. c #654C35",
"u. c #684D35",
"i. c #624C39",
"p. c #675137",
"a. c #65523C",
"s. c #6D543E",
"d. c #6E5A3D",
"f. c #765334",
"g. c #72553C",
"h. c #77593F",
"j. c #7C5839",
"k. c #594F41",
"l. c #4E5340",
"z. c #535641",
"x. c #5C5540",
"c. c #565B41",
"v. c #5B5C43",
"b. c #5D5D49",
"n. c #635541",
"m. c #6A5441",
"M. c #625D45",
"N. c #6B5A44",
"B. c #655E48",
"V. c #735B42",
"C. c #7B5D42",
"Z. c #745D48",
"A. c #785F4A",
"S. c #5A6145",
"D. c #5B6146",
"F. c #5E6449",
"G. c #626147",
"H. c #63654B",
"J. c #6B644C",
"K. c #64694E",
"L. c #6B694E",
"P. c #776349",
"I. c #74644E",
"U. c #7B634C",
"Y. c #656652",
"T. c #6C6651",
"R. c #666C50",
"E. c #6B6D53",
"W. c #6B6F59",
"Q. c #736652",
"!. c #7A6551",
"~. c #726C54",
"^. c #796D54",
"/. c #746E5A",
"(. c #7B6E58",
"). c #6D7156",
"_. c #6F7359",
"`. c #737156",
"'. c #7B7156",
"]. c #73745A",
"[. c #7B745B",
"{. c #76795E",
"}. c #7C785F",
"|. c #7E7760",
" X c #777B60",
".X c #7B7B62",
"XX c #82664D",
"oX c #85684C",
"OX c #846B54",
"+X c #886E52",
"@X c #856F59",
"#X c #896F58",
"$X c #8B7157",
"%X c #83745C",
"&X c #8C755D",
"*X c #83795F",
"=X c #8C785F",
"-X c #847660",
";X c #8C7760",
":X c #847B62",
">X c #8B7B64",
",X c #907761",
"<X c #937C64",
"1X c #947F68",
"2X c #838166",
"3X c #8E8167",
"4X c #868068",
"5X c #8E826A",
"6X c #94846B",
"7X c #9C846D",
"8X c #9D886F",
"9X c #9E8770",
"0X c #958970",
"qX c #9C8A72",
"wX c #A08770",
"eX c #A38B73",
"rX c #A78F78",
"tX c #A88F78",
"yX c #A69179",
"uX c #AA927A",
/* pixels */
"I _ %.-.A +.&.S 0.0.r.S.S.S.G.M.r.0.v.r.r.v.r.w.9.:.9.9.:.-.@.,.D D v C >.-.-.:.:.@.,.1.0.&.V :.:.@.-.1.&.0.w.0.v.v.x.0.` Q E R ",
"F F K ) C B V N &.:.v.].].`.].K.H.S.K.R.F.H.R.v.c.>.0.9.S l C b M v # $ B $ @ V S l S C z.-.M S 0.-.Z z.>.S.0.:.S.H.x.Q H F F 6 ",
"& F K G 5 N +.-.:.:.:.H.K.].K.w.:.:.w.D.F.R.E.w.w.r.$.O.u 2 M :.;.A v m y . v z.z.:.,.C v @.w.M +.M c @.0.8.O.+.0.g H & 1 & , q ",
"< > i 1 K 1 f [ :.>.:.:.c.H.E.S.c.B :.w.0.K.c.:.:.r.:.B 0 $ a :.c.<.S m O.&.:.0.c.).c.;.M w.r.>.$.M r e l h k M g > 7 ) Q > i q ",
"i < i g _ g i d { 7.w.w.v.T.~.M.v.r.H.R.0.w.+.w.F.E.E.w.S 2 f %.` f S &.t.).E.S.0.:.S.>.[ :.<.w.*.V >.:.>.4.{ d d ) ` { a i a q ",
"h i i _ ;.;.{ Q ) a.%X-X~.%X%XJ.T.^.[.G.9.o.*.S.S.x.7..._ p , G G 1 g _ =.7.x.G.v.*.0.:.%.x.J.J.J.[.'.~.%XV.| =.5.7.;._ i z a q ",
"l a i Q 4.w.e.e.2._ 3.'.J.S.`.%X-X6X%X$.+.+.6.%.) g ) _ %.` N Q Q N [ { ) Q g ) 4.6.:.>.*.>X6X-X%X^.v.M.p...i.I.m.e.7.) d ) e q ",
"o.B a i l B :.w.v.N.y.u.%X|.[.J.K.`.L.>.;.) { ' ' >.c.z.F.9.:.v.w.:.0.F.w.e.;.{ { ' ) 4.6.E.).K.J.^.J.N.y.!.~.v.w.:.l i z B j q ",
"f a j i a $.:.:.w.H.M.#.3.Z.%X6X6XH.M.=.=.4.v.v.v.F.E.K.H.w.K.S.F.K.w.Y.K.E.F.S.v.v.4...3.M.K.6X<XZ.u.3.6.T.F.0.:.&.a i l j j q ",
"*.N j a i V V V S.).).S.v.3.=.M.L.d.i.7.v.R.).].].'.[.E.S.H.E.E.E.E.H.F.E.[.].].].).K.v.e.p.d.N.i.=.e.S.S.).).c.B l i u j e l e ",
"O.o.B x a g B B 0.v.w.S.R.H.7.=.a.g.!.[.R.{.[.}.}.}.].K.R.K.S.E.E.S.K.K.K.{.|.}.[.[.{.R.[.I.g.i.7.G.R.K.v.w.v.9.l i a B j e u 8 ",
"B B B j q : l o.0.v.1.9.:.&.w.m.m.g.!.{.}.}.&X-X%X|.R.F.E.E.~.(.^.).E.E.F.E.-X%X*X%X}.[.~.g.V.I.m.w.+.:.>.6.v.9.l : e j h q 0 ; ",
"+.+.a e e : : l &.c.S.r.>.) 3.(.@XA.s.N.%X&X<X>X:X~.S.E.{.{.>X<X<X:X{.{.K.S.^.:X;X<X$XU.s.U.:X>XQ.=.` >.r.S.r.$.i : a e q q 8 2 ",
"c.v.>.B e q : a $.$.&.w.%.{ B.'.;X&XU.V.h.oX&X>XE.H.R.[.:X6XeXwXeXqX5X-X'.K.H.`.>X#Xj.f.U.%X;X&X^.v.' ;.0.&.$.N : 9 a e q l u 2 ",
"c.E.G.w.S u : q Z ` M ;.g 6.z.-X^.%X>X<X$XC.p.v.K.~.%X&X<XeXeXeXeXeXeX<X&X@X~.K.6.u.XX<X<X>X[.^.*Xw.;.g $.l ` a : a e l V V u 2 ",
":.c.1.c.c.l.f : q [ N d g $.e.^.H.;X<X7X8XI.{ 3.M.(.$X<X8XeXeXuXuXeXtX8X<X@X!.n.3.;.%XeX<X<X>XG.^.6.$.s i S ) < f $.l B N +.f q ",
"-.r.c.R.v.0.t % , N i ) >.$.[ $.J.6X<XeX;Xv.r.N.m.N.@X7XeXeXuXuXuXeXeXrX<XU.a.N.L.r.M.<XeX<X6XN.[ [ $.;.d a 7 1 -.:.&.:.V N l e ",
"-.r.S.K.<.S l 5 F , < N :.c.*.w.>X>X6XeXG.w.F.].^.g.f.oX8XrXuXuXuXuXqX<XC.f.P.*X].F.0.L.rX6X6X*X>.*.c.*.z < F _ v.w.0.:.+.u 0 e ",
":.r.F.S.v.r.w.{ F F Q u *.r.w.[.:X>X1X>X:.v.K.].}.=XC.C.XX7XuXuXuXeX#XC.XX+X>X[.].H.c.9.6X<X;X:X`.0.r.[ t * F 2.E.H.S.0.0.B 2 q ",
":.c.F.c.0.0.>.4.G F ] V *.v.w.L.H.'.:XM.:.S.E.T.>X'.<X&XV.U.,X8X<XOXOX@X9X>X[.>X~.E.c.:.G.:X~.H.H.w.v.*.d F F P B.E.F.c.r.&.l e ",
"S 0.R.K.z.:.w.! F F I l :.L.B 9.>.[.G.e.H.H.w.*X*X~.uX>X&XOXU.U.U.#XwX>XqX0Xv.5X[.r.K.H.e.J.^.:.:.V L.$.> K W F ..K.F.S.w.9.V e ",
"@.F.).F.F.z.4.H P W G ^ $.G.B $.e.L.G.:X[.~.Q.0X6.:XyX*X<XOXC.OXU.oX<X&X9X%Xv.5X6Xv.~.[.~.%.J.6.N V L.` &  .x.H P x.F.S.9.r.&.l ",
"9.K.K.F.F.c._ F _ a.H 6 V &.:.>.w.F..X>X<X:X0XqX1.6XyX^.U.XX$XeX&Xj.C.J.6X~.<X<X&X6X].H.6.>.0.w.>.>.w.6 K M.M.R G %.c.:.>.w.:.x ",
"9.v.S.S.c.r.E F %.E.} & [ +.$.;.w.S.:X*X*X).:XqX5X>X<Xs.P.%XeXeX6XOXV.s.!.:XeX[.~.*XE.w.f x./.b.W.v.w.> / r.:.d F ! &.B :.&.V l ",
"S >.9.w.:.;.H K q.v.e.1 ) $.V w.w.v.E.H.E.].>X3X&Xh.XX$X*X%X6X;X[.%X!.+XV.Z.OX=X>X].F.c.$.;.E.x.w.-.g , 4.0.9.*.K K z +.:.8.:.l ",
"q +.9.0.0.' F / S.r.:.q i l $.w.M.v.+.>.&.:.I.$Xg.p.&XeXeXeXG.^.N.>X8X,X!.m.h.oX(.&.B &.$.>.Y.S B y - / v.r.G.L.! F N +.S :.9.j ",
"2 y B &.w.! F %.S.0.B @ : 9 &.w.e.%X$.j r 2 ) s.U.J.`.eXeXqXG.>XG.-X8X%XH.%XOXu.` t t V l 0.b.+.B : , w.S.r.S.E.] F Q -.:.>.>.l ",
"# # $ m $.U F { :.:.:.u 7 % N c.~.x.c $.f ] ) e..X~.:.[.:X[.w.[.v.`.:XH.w.*X~.[ ` ] f S c 1.S >.Q % ( G.S.S.v.H.[ F Q 0.<.&.>.l ",
"r 2 $ u ` H K :.w.c.K.9.` > q w.H.;.2 5._ 6.R.>.R.].N w.G.F.:.v.$.E.).>.*.H.0.V R.;.{ 2.f x.f [ K H 7.L.H.v.v.c.$.* U w.S.r.-.x ",
"$.$.N $.s F I 0.0.w.D.l u f : ;.Q.{ Q n.-X1.H.N >.r.u V [ 0.B S u z.c.f V >.M >.Y.1.>X2.) 2.u q < ) v.H.K.v.H.H.$.H K 6.S.S.:.M ",
"+.-.:.w.g F Y :.&.9.:.r B w.g ) 3.3.6.:.`.'.;.r u j r ;.t u r u $ j B j r f y *.6.[.~.:.$.) a : s V S.F.v.v.H.D.#.H L x.H.c.-.l ",
":.w.r.S.%.G I *.:.&.l u 9.S.) i =.>.0.>.E.S.-.X.c M ;.>.%.u C ;.f V S &.M u $.B.1.H.G.*.v.L.) < a l 9.S.S.D.H.r.$.H L v.K.S.V e ",
":.v.S.S.;.G I :.+.l q u w.` ) a 4.S.n.w.~.T.E.:.b >.H.E./.S 1.M.%.T._.v.e.N *.L.}.6.:.S J.:XN d _ g l w.v.S.K.0.;.H P J.L.c.9.j ",
"9.c.S.H.7.G Y w.+.l e = Q ' G.[ { [ n.w.G.:X6XB u M :.[.6X*.w.w.>.4X{.G.S V J.L.qX:Xw.>.>XI.i 7.G.a % I ;.F.R.9.*.K P L.].b.<.l ",
"r.H.K.H.n.J Y w.&.N K & g v.H.:.) ' -.w.~.(.}.:.$.t f ^.7XL.H.v.M.5X5X1.b :.c.w.}.0X3X[.'.) ~ >Xv.0 < G K ..v.9.V H L M.).E.0.B ",
"c.E.K.v.H.I H ) R G K =.&.l S B z g 6.L.x.;.Z J.w.S u J.7X*XL.v.[.rX5X$.*.[.C -.T.L.~.T.v.i =.:XB V B f K G I [ $.H U w.S.H.0.B ",
">.S.0.S.).Q F F H } M.{.F.w l :.[ _ ;.;.M.w.-.B.v.0.y G.6X6X`.H.}.uXT.:.>.Y.C v.>.v.S.0.{ a V $.M w.+.e B Q H H I F Q 9.r.S.r.V ",
"-.r.z.H.v.K F I 7.H._..X{.v.$.9.B N d V v.$.;.M.1.Y.y w.%X<X~.E.6X0XG.[ v.6.w.-.:.:.E.:.g ` -.B +.:.B l l 9.$.I F F W c.c.r.w.V ",
"-.r.c.%.I G F E F.R.).{.|.].S.9.u [ a 3 $.S ;.G.0.~.4 M '.;XG.'.6X:X<.A |.t.w.S S b :.;.g $.>.:.&.l B &.:.9.&.;.K F F } 6.r.0.V ",
":.%.E G , a * K >.F.K._.{.R.K.9.B [ t q 2 m S c.R.E.$ O 1.6Xe.*XqXL.$ r [.F.:.u t f f Q ) +.:.9.:.+.-.8.c.r.0.;.H K R F K ' >.l ",
"Q H F U [ B p F ) 9.H.K.c.r.v.:.N 6.u 3 2 $ 2 >.{.[.0 O $ *X7.Q.2XZ # r }.).N u t y q a $.j :.:.$.*.:.w.x.>.>._ F Q $.R H F R a ",
"F F F J K K G F H K I I K K K 7 s s i : : + o n N.I.g = : _ f n 5.q ; N I.7.q s : 3 < < s < K K K K K P P K K H F G K K G F F * ",
"K L L L P L J G F H H H K K , < d g d : = + + 3 7.!.5.: a _ s t =.q i 3.Z.] q + + : 6 g d 6 > H L J J H H H G F G K H H L L K K ",
":.v.M.v.J.x.w. .F  .e.[ B B l N v.w.$.l + = t y w.5X%Xu C e.N N x.M V ~.[.S Z $ X - ` K.z.%.l $.e.e.e.6.;.*.! F { 6.;.6.e.w.6.V ",
"9.S.S.H.K.v.r.w.K Y v.+.e e u r..Xv.S B . + f u >.}.}.N $.6.M ` c.V >.:XR.m -.0 X ; *.'.L.w.$.:.F.F.F.S.-.V K Y S.F.c.c.S.c.0.B ",
":.w.e.v.H.G.w.v.{ G R O.B l l H.-Xv.0.$   o 3 f >.x.}.n.V >.+.>.w.[ ^.x.w.+.&.0 X 2 v.H.E.v.&.:.R.).).R.>.7 G 4.R.v.w.K.v.:.+.l ",
":.9.0.v.v.c.:.w.0.W G N +.o.B v.>Xe.M.0 . X + { e.S T.:X+.v.-.v.e.Q.~.t.v.1.0 + X f H.].R.w.+.:.]..X.XE._ F  .~.H.>.w.K.9.&.&.h ",
"9.9.&.w.w.9.:.0.9.$.* K $.-.B :.v.[.H.&.O $ + g S f 4.E.F.R.w.S.R.G.G.H.0.b ; = O :.]..Xw.-.>.S.]..X{.e.K T J.[.M.*.:.c.-.>.>.l ",
"9.:.&.e.J.S.S.0.r.:.d G E x.w.o.u Q.[.S.b k.t Q s u f 1.V E.w.;.K.&.B.C j $.f 2.t v.:X(.u +.F.E.). XM.I P n.].S.0.$.$.:.<.:.9.l ",
":.w.w.v.G.L.c.9.F.6.+.~ G ( H.r.j ;.6XH.;./.$ ) ) e.c 6.u w.S M ,.Z ;.M w.;.n (.N H.0Xe.0 +.c.K.R.H.W G 4.K.R.r.:.&.r.&.:.:.:.x ",
"$.4.6.v.H.F.:.9.F.:.>.w.! G ( L.r.u ~.^.B.>Xy r s e.;.Q.6.E.;.1.Y.-.x.-.w.f 2.6X$.~.6XM l z 9.K.M.W G } c.r.v.9.<.9.r.-.v.S.&.l ",
"l S 9.r.r.9.l V r.-.9.S.M.! G ( v.+.x.%XL.:XB u M _ [ T.`.2XH.E..Xx.x.A [ q N.3X:.:XQ.y 9.w.H.>.Y G  .T.).w.*.0.9.0.0.:.v.S.$.e ",
"c M B +.&.r.9.:.>.:.1.F.R.H.3.L Y Q x.7XS H.6.r S d q 1.J.`.K.E.~.e.[ S N a B.[ M.7Xe.V c.v.i.K H 3.T._._.>.B w.0.0.9.:.M.v.0.l ",
"B l e M :.r.r.9.&.;.6.D.E.]._.n.P , 3.%XC 1.J.N f : d x.>.J.$.G.c.e.x.[ : [ :.Z >X6Xe.9.6._ G * N c.E.].).>.:.0.w.9.w.H.).b.<.l ",
"o.+.O.S :.9.r.&.+.w.G.F.K.).]._.M.g ~ ) C M $.>.>.3 : 4.S.3Xe.>XY.J.-.2 : B $.;.G.>Xe.{ I H E z B -.v.K.E.H.F.v.w.r.F.K.S.S.c.V ",
"+.:.:.9.r.r.c.9.:.9.S.c.S.E.].R.c.M ;.a 3 : l *.;.<.Z a V w.` e.$.V S 6 i Z S ;.f 7.R G I { 6.V u C >.v.K.R.H.r.w.e.w.9.r.v.v.V ",
"*.>.0.w.r.r.r.&.+.9.S.c.c.E.].K.S.V M V = : : : g b ;.a a &.V :.[ n.) a q t g i : i i _ *.0.r.+.B +.c.S.G.L.H.r.9.9.:.:.r.S.v.o.",
"&.*.w.w.r.w.r.w.9.w.H.S.H._._.v.H.v.V l 2 0 u Z i : i : d =._ 2._ ] i i : : i 9 ; u 9.c.:.:.w.V V &.v.E.G.H.v.9.&.&.r.c.S.S.v.[ ",
"&.9.r.c.w.0.S.S.w.c.H.K.).{.).c.v.S.0.:.M 0 +._.;.f V [ a < i a a d i a a 5.e.y M F.].S.:.:.w.N V +.>.K.F.0.:.:.&.:.M.H.S.S.c.+.",
":.0.:.0.r.9.S.v.r.S.K.R.).E.K.S.v.0.w.r.0.w l L.~.V +.e.{ d e.R.6.g f l f %X6.u v.)._.S.0.c.c.&.B +.:.0.c.:.9.w.9.0.v.J.H.v.v.+.",
"0.r.w.0.r.c.c.r.c.F.).K.H.S.S.c.r.>.c.9.0.&.h B v.e.t >.4.a 4.R.) i &.S C T.-.0.H.F.K.F.0.F.F.>.O.9.:.V &.:.>.:.:.w.v.H.H.v.c.o.",
"r.H.v.c.r.F.S.w.r.H.E.H.F.K.F.S.r.9.w.0.:.:.&.+.&.w.V v.G.Q U .., { K.<.M 0.R.E.S.w.0.c.r.K.K.z.&.r.9.B +.9.-.o.&.0.S.F.S.v.c.V ",
"r.K.F.v.v.v.S.w.r.F.F.S.F.R.R.F.H.r.w.w.9.&.9.c.H.H.r.F.).7.H G K x.E.R.S.R.).`.E.v.&.9.S.K.K.r.N l V :.r.F.9.B B O.9.S.S.F.S.B ",
":.0.9.9.>.9.9.:.:.9.9.9.9.r.r.9.w.>.&.+.+.B B +.>.w.0.9.r.:.7 F p :.0.c.z.z.c.r.r.9.B +.9.0.9.V q 0 e :.0.9.O.h q w x +.:.:.:.h "
};
