/* XPM */
static char *f6def399c84b48d791aeea9849cb433cTkjZMQ4JxT5ZodwS[] = {
/* columns rows colors chars-per-pixel */
"64 64 177 2 ",
"   c #000001",
".  c #0A0905",
"X  c #00000D",
"o  c #0F0F08",
"O  c #110D04",
"+  c #100F09",
"@  c #0E120F",
"#  c #13130B",
"$  c #191609",
"%  c #1C1A0D",
"&  c #030210",
"*  c #0F1310",
"=  c #111612",
"-  c #131813",
";  c #1A1911",
":  c #1D1E1E",
">  c #261C00",
",  c #201F11",
"<  c #1C2016",
"1  c #1D231E",
"2  c #22200F",
"3  c #312600",
"4  c #3A2F00",
"5  c #3E3000",
"6  c #232112",
"7  c #292514",
"8  c #252419",
"9  c #1F1F20",
"0  c #1E2120",
"q  c #1F2821",
"w  c #1C222C",
"e  c #232423",
"r  c #282722",
"t  c #242925",
"y  c #2A2A25",
"u  c #262729",
"i  c #272828",
"p  c #2B2B2B",
"a  c #263328",
"s  c #2A342C",
"d  c #2D3B2F",
"f  c #31332D",
"g  c #363B2F",
"h  c #262B36",
"j  c #2E2E31",
"k  c #2F3032",
"l  c #2E3C31",
"z  c #343434",
"x  c #313D34",
"c  c #3B3E30",
"v  c #343539",
"b  c #373838",
"n  c #3B3C3C",
"m  c #453600",
"M  c #4C3A00",
"N  c #463F0C",
"B  c #593D08",
"V  c #394729",
"C  c #344135",
"Z  c #394635",
"A  c #3F423A",
"S  c #574000",
"D  c #5E4514",
"F  c #6B4A04",
"G  c #7C4900",
"H  c #604819",
"J  c #46532B",
"K  c #41463A",
"L  c #495636",
"P  c #565C3F",
"I  c #745928",
"U  c #5C653F",
"Y  c #626F3F",
"T  c #3E3F41",
"R  c #3F4041",
"E  c #424344",
"W  c #434946",
"Q  c #484945",
"!  c #43454C",
"~  c #47484B",
"^  c #4B4C4C",
"/  c #4A5540",
"(  c #44504C",
")  c #4F5349",
"_  c #575D46",
"`  c #50544C",
"'  c #414752",
"]  c #4C4E51",
"[  c #4E5150",
"{  c #4D5B56",
"}  c #4F5D58",
"|  c #525353",
" . c #555952",
".. c #565C56",
"X. c #53555B",
"o. c #585C5C",
"O. c #5D6640",
"+. c #5D6651",
"@. c #656D44",
"#. c #6C7446",
"$. c #727A4E",
"%. c #646657",
"&. c #61645A",
"*. c #647253",
"=. c #6E755C",
"-. c #6C7A5A",
";. c #747C52",
":. c #5F5C60",
">. c #566663",
",. c #5E6D6A",
"<. c #6C656F",
"1. c #6C7274",
"2. c #8C5100",
"3. c #B66B00",
"4. c #8E6B29",
"5. c #DF6F00",
"6. c #E27300",
"7. c #7C8252",
"8. c #7B8668",
"9. c #E79600",
"0. c #E99A00",
"q. c #EDA402",
"w. c #F5A600",
"e. c #FDA600",
"r. c #FCAA00",
"t. c #FFB100",
"y. c #FFC100",
"u. c #FFCC00",
"i. c #818A54",
"p. c #858C5A",
"a. c #86905D",
"s. c #899058",
"d. c #929F54",
"f. c #99A455",
"g. c #9BA757",
"h. c #9DAA54",
"j. c #A2AE53",
"k. c #AAB957",
"l. c #ACBA59",
"z. c #838D6F",
"x. c #858E73",
"c. c #909B74",
"v. c #96A268",
"b. c #9BA872",
"n. c #A8B568",
"m. c #A8B275",
"M. c #ABB477",
"N. c #AEB679",
"B. c #B0B97A",
"V. c #B4C65E",
"C. c #B5C26D",
"Z. c #BCC973",
"A. c #C4D375",
"S. c #727E80",
"D. c #778283",
"F. c #7A8687",
"G. c #7E8B87",
"H. c #83828B",
"J. c #808E8E",
"K. c #B4BD81",
"L. c #9D99A9",
"P. c #A7A7B1",
"I. c #B8C285",
"U. c #BBC385",
"Y. c #C0C587",
"T. c #C1CC84",
"R. c #C0C789",
"E. c #C6D187",
"W. c #D6D3E2",
"Q. c #DBD6E7",
"!. c #DADAE9",
"~. c #DEE0EF",
"^. c #E0E0EF",
"/. c #EEEAFD",
"(. c #F1ECFF",
"). c #F4F1FF",
"_. c #FFFCFF",
/* pixels */
"                                                                                                                                ",
"o.o.o.o.o.o.o.o.o.o.o.o.o.o.o.l o.l o.l o.o.o.o.o.o.o.o.o.o.o.o.l o.o.o.o.o.o.o.o.o.o.o.o.o.o.o.o.o.o.o.o.o.o.o.o.o.o.l o.l o.o.",
"l l l l l l l l l l l l l l l l l l l l l l l l l l l l l l l l l l l l l l l l l l l l l l l l l l l l l l l l l l l l l l l l ",
"l l l d d d d d d d d d d d d d d d l l l l l d d d d d d d d d d d d d d d d d d d d d d d d d d d d d d d l l l l l l l l l l ",
"l l l % X X X X X X 6 X 6 X 6 6 6 6 l l l l d X X X X X X X X X X X X X X X 6 X 6 X 6 X 6 6 6 6 6 6 6 6 6 6 l l l l d l x l l l ",
"l l l X l l l l l l l l l l l l l C l l l s X l l l l l l l l l l l l l l l l l l l l l l l l l l l l l l C l l l s X l o.l l l ",
"d d d X d d d d d d d d l d d l C x.d d s X l d d d d d d d d d d d d d d d d d d d d d d d d d d d d d C x.d d s X l d | d d d ",
"x x x X x x x x x x x x x x l Z x.d x s & x x x x x x x x x x x x x x x x x x x x x x x x x x x x x l C x.d x s & x x x o.x x x ",
"| | | % | | | | | | | | | | &.I.] | ^ 6 | | | | | | | | | | | | | | | | | | | | | | | | | | | | | | &.8.] | ] 6 | | | | z.| | | ",
"l l l X l l l l l l l l l Z I.s l a X x l d l l l l l l l l l l l d l l l l l l l l l l l l l l l Z Y.s l a X x l l l l | l l l ",
"| | | 2 | | | | | | | | &.R.] X.^ 7 o.| | | | | | | | | | | | | | | | | | | | | | | | | | | | | o.R.] X.^ 7 o.| | | | | c.| | | ",
"| | | 6 | | | | | | ] &.I.^ | Q 6 | | | | | | | | | | | | | | | | | | | | | | | | | | | | | ] &.8.^ | Q 6 | | | | | | | I.| | | ",
"| | | s | | | | | ] &.I.^ | Q 6 X.| | | | | | | | | | | | | | | | | | | | | | | | | | | | ] &.I.] | Q 6 X.| | | | | | | z.| | | ",
"| | | , | | ` ` ] &.I.^ | Q 6 | | | | | | | | | | | | | | | | | | | | | | | | | | | | | ] &.I.^ | Q 6 | | | | | | | | | E.| | | ",
"^ ^ ^ s [ ^ ^ ^ &.K.~ [ E 6 | ^ ^ ^ ^ ^ ^ ^ ^ ^ [ [ ^ ^ ^ ^ ^ ^ ^ ^ ^ ^ [ ^ ^ ^ ^ ^ ^ ^ &.K.~ [ E 6 | ^ ^ ] ] ^ ^ ^ ^ ^ T.[ ^ ^ ",
"^ ^ ^ s ^ ^ ^ &.K.~ [ W 6 | ^ ^ ^ ^ ^ ^ ^ ^ ^ ^ ^ ^ ^ ^ ^ ^ ^ ^ ^ ^ ^ ^ ^ ^ ^ ^ ^ ^ ^ &.K.~ [ W 6 | ^ ^ ^ ^ ^ ^ ^ ^ ^ ^ T.^ ^ ^ ",
"^ ^ ^ a ^ ^ &.B.~ ^ E d [ ^ ^ ^ ^ ^ ^ ^ ^ ^ ^ ^ ^ ^ ^ ^ ^ ^ ^ ^ ^ ^ ^ ^ ^ ^ ^ ^ ^ ^ &.B.~ ^ E d | ^ ^ ^ ^ ^ ^ ^ ^ ^ ^ ^ T.^ ^ ^ ",
"^ ^ ^ a ^  .N.! ^ ^ s ^ ^ ^ Q Q Q Q Q Q Q Q ~ Q ~ Q ~ ~ ~ ~ Q ~ ^ ~ ~ ~ ~ ~ ~ Q Q &.N.! ^ ^ s ^ Q Q ~ ~ ~ ~ ~ ~ ~ ~ ~ | E.^ ^ ^ ",
"Q ^ ^ l ^ =.E Q Q Q .. . . . . . . . . . . .%. .%. .%.%.%.%.%.%.%.%.%.%.%.%.%.%. .M.E Q Q Q .. .%. .%.%.%.%.%.%.%.%.%.b.b.^ Q Q ",
"Q Q Q ^ Q ~ Q Q Q Q =.=.=.=.=.=.=.=.=.=.=.=.m.=.m.=.m.m.m.m.m.m.m.m.m.m.m.m.m.m.=.E Q Q Q Q =.=.m.=.m.m.m.m.m.m.m.m.m.b.E Q Q Q ",
"Q Q Q Q Q Q Q Q Q Q Q Q Q Q Q Q Q Q Q Q E Q R Q E Q E E E E E E E E E E E E R T Q Q Q Q Q Q Q Q E Q E E T R T E E E E E ~ Q Q ~ ",
"~ Q ~ Q Q Q ^ ^ ^ ^ ^ ^ Q ^ Q Q ^ ^ ^ Q Q Q ~ Q ^ Q Q Q Q Q ^ ^ Q Q Q Q ^ Q Q ~ ^ ^ ^ ^ Q Q ^ ^ Q ^ Q ^ ~ ~ Q Q Q Q Q Q Q Q Q Q ",
"Q Q Q ~ z z z z z z z z z z z z z z z z z z z n z n z n z n z z z z z z z z z z z z z z z z z z z z n z n n Q Q Q Q ~ Q E Q Q Q ",
"Q Q Q z $ 8 8 8 8 8 8 8 8 8 8 8 8 8 8 8 8 8 8 s 8 s 8 s 8 s 8 8 8 8 8 8 8 8 8 8 8 8 8 8 8 8 8 8 8 8 s 8 s s E E E Q b Q [ Q Q Q ",
"E E E $ l ~ E E R R R E E E E E E E Q ~ ' ! ! ! ! ! ! ! ! ! ~ ~ Q Q ~ ~ ~ ~ ~ ~ ~ ~ ~ ~ ~ ~ ~ ~ ~ ~ ~ ~ Q  .E E Q b s E 7.E E E ",
"E E E % Q E :.1.H.H.H.H.1.H.1.H.1.:.n E H I I I 4.4.4.I I H E E E E E E E E E E E E E E E E E E E E E T ` +.E E b s Q E -.E E E ",
"E E E $ E E W./.F.X.F.F./.:./.F./.W.s E 6.r.r.t.F F M r.r.6.n E E E E E E E E E E E E E E E E E E E T ` +.n E z s Q E E -.R E E ",
"E R E $ R E ^.!.[ u } } /.j !.W !.^.t E q.0.0.3.    > 0.0.q.a E E E E E E E E E R R E K K R E E E n ) +.n E z s E E E E -.E E E ",
"n n n $ n n ~.!.S._.] ] >.G.!.).!.~.t n 0.0.w.$   m u.w.0.0.q n R n n n n n n R n n n n n n T T n ;._ n E y s E n n n n *.n n n ",
"n n n $ n n W.(.{ (.v v { { (.(.(.Q.q n 9.9.2.    S M 2.9.9.q n n n n n n n n n n n n n n n n b ;.p.n R y 8 T n n n n n v.n n n ",
"n n n < n n o.,.D.,.J.J.D.D.,.,.,.^ t n 9.9.G 4 4 O   G 9.9.q n n n n n n n n n n n n n n n b ;.i.b R r 8 R n n n n n n v.n n n ",
"n n n ; n n s t t t 1 1 : 1 1 1 : 1 b n 9.9.r.t.u.> M r.9.9.q n n n n n n n n n n n n n n b ;.7.b T e 8 T n n n n n n n a.n n n ",
"n n n ; n n n n n n <.H.P.L.H.L.H.<.b n 9.9.9.9.3   5 9.9.9.q n n n n n n n n n n n n n b 7.7.b n 8 8 n n n n n n n n n Z.n n n ",
"n n n q n n b n b n W./.v { /.{ /.W.t n 0.9.9.9.3   3 9.9.0.1 n n n n n n n n n b b b z 7.$.z n i 8 n n b n n n b b b b C.b b b ",
"b b n 1 b b b b b b W.).T ,.).,.).Q.1 b 5.e.e.e.y.M y.e.e.6.1 b b b b b b n n b b b z 7.$.z n i p n b b b n b b b b b b C.b b b ",
"b b b 1 b b b b b b Q W ,.>.( >.( A t b B D N N N F N N N 5 t b b b b b b b b b b k 7.#.z b t p n b b b b b b b b b b z C.b b b ",
"b b b p b z z z z z i 0 0 0 e 0 0 0 p j h h w w w w w w w w p j j z j z j z j j z i.@.z b b t z z j z j z j k k j j j K A.b b b ",
"b b z b z L / / / / / s./ s./ s.s.s.i.i.i.i.s.s.s.s.s.s.s.s.i.i.i.L i./ i./ i.i./ @.j b b b / / / i./ i./ i.i.i.i.i.i.n._ b b b ",
"z z z z z A A A A A A O.A O.A U O.O.O.O.O.U O.O.O.O.O.O.O.O.O.O.U A O.A O.A O.O.A j z z z z A A A O.A O.A O.O.O.O.O.O.P j z z z ",
"z z z z z j j j j j j j j j j j j j j j j j j j j j j j j j j j j j j j j z j j j z z z z z j j j j z j j j j j j j j j z z z z ",
"z z z z z z z z z z z z z z z z z z z z z z z z z z z z z z z z z z z z z z z z z z z z z z z z z z z z z z z z z z z z z z z z ",
"p p p z ; ; ; ; ; ; 1 ; 1 ; 1 1 1 1 j j j j z 1 ; ; ; ; ; ; ; ; ; ; ; ; ; ; ; ; ; ; ; ; ; ; ; ; 1 ; 1 ; 1 1 1 1 q 1 q p p p p p ",
"p p p ; # e e e e e t e t e t t t e p p p z ; t e e e e e e 8 8 8 e e e e e e e e e e e e e e e t e t e t t t t t t t p p p p p ",
"p p p O i j j p j j p j p j p p p L p p k $ e p j j j j j j p p j j j j j j j p j j j j j j j j p j p p p p p p p p p p K p p p ",
"p p p # p p p p p p p p p p p u L z p j # 8 p p p p p p p p p p p p p p p p p p p p p p p p p p p p p p p p p p p p p p U p p p ",
"p p p # p p p p p p p p p p u d.z p p # 8 p p p p p p p p p p p p p p p p p p p p p p p p p p p p p p p p p p p p p p p f.p p p ",
"p p p # p p p p p p p p p u f.c p p # 8 p p p p p p p p p p p p p p p p p p p p p p p p p p p p p p p p p p p p p p p p #.p p p ",
"p p p O p p p p p p p p u f.g u p # 8 p p p p p p p p p p p p p p p p p p p p p i i p p p p p p p p p p p p p p p p p p f.p p p ",
"i i t o t t t t i i i u f.f u p # 8 p i i i t i t t t u u t t t i i t t t t t t i t t u u u t t t t p p i t t t i t t u Y u t t ",
"u u u - u u u u u u e f.f u p # , u u u u u u u u u u u u u u u u u u u u u u u u u u u u u u u u u u u u u u u u u u u f.u u u ",
"u u u o u u u u u e f.p u i # 8 u u u u u u u u u u u u u u u u u u u u u u u u u u u u u u u u u u u u u u u u u u u u l.u u u ",
"u u e = e u u u e h.p e u + 1 u e e e e u e e e e u u u e e u u u u e e u u e u u u u u e e e u e e e e e e e e u u u u l.e e u ",
"e e e - e e e e h.y e u + : u e e e e e e e e e e e e e e e e e e e e e e e e e e e e e e e e e e e e e e u e e e e e e k.e e e ",
"e e e = e e 9 h.y e e - : e e e e e e e e e e e e e e e e e e e e e e e e e e e e e e e e e e e e e e e e e e e e e e e k.e e e ",
"e e e = e e j.u e e = 1 e e e e e e e e e e e e e e e e e e e e e e e e e e e e e e e e e e e e e e e e e e e e e e e 9 k.e e e ",
"0 0 e = e J e 9 e e : 9 9 9 9 9 9 9 9 9 : : : 9 : 9 : : : : : : : : : : : : : : : : : : : : : : 9 : 9 : : : : : : : : V V.e e e ",
"9 0 0 : 0 e 9 0 0 0 J J J J J J J J J J J J j.J j.J j.j.j.j.j.j.j.j.j.j.j.j.j.j.j.j.j.j.j.j.j.j.J j.J j.j.j.j.j.j.j.j.k.e 0 0 0 ",
": : : : : : : : : : e e e e e e e 9 e e e e e e e e e e e e e e e e e e e e e e e e 8 e e e e e e e e e e e e e e e e e : : : : ",
": : : : : : : : : : : : : : : : : : : : : : : : : : : : : : : : : : : : : : : : : : : : : : : : : : : : : : : : : : : : : : : : ",
": : : : : : : : : : : : : : : : : : : : : : : : : : : : : : : : : : : : : : : : : : : : : : : : : : : : : : : : : : : : : : : : ",
"* * * * * * * * * * * * * * * * * * * * * * * * @ @ * * * * * * @ @ * * * * * * * * * * * * * * @ @ * * * * * * @ @ * * * * * * ",
"@ @ @ @ @ @ @ @ @ @ @ @ @ @ @ @ @ @ @ @ @ @ @ @ @ @ @ @ @ @ @ @ @ @ @ @ @ @ @ @ @ @ @ @ @ @ @ @ @ @ @ @ @ @ @ @ @ @ @ @ @ @ @ @ ",
"@ @ @ @ @ @ @ @ @ @ @ @ @ @ @ @ @ @ @ @ @ @ @ @ @ @ @ @ @ @ @ @ @ @ @ @ @ @ @ @ @ @ @ @ @ @ @ @ @ @ @ @ @ @ @ @ @ @ @ @ @ @ @ @ ",
".             .   .   . . . . .                         .   . . . . . . . . . .   .   . .   .   .             .   .   . . . . . "
};