/* XPM */
static char *bca03d43a6514cbdac54c76188508f428BBRhQOUq04c8zpJ[] = {
/* columns rows colors chars-per-pixel */
"64 64 94 2 ",
"   c black",
".  c #070706",
"X  c #0B0B0A",
"o  c #0C0C0B",
"O  c #0D0D0C",
"+  c gray6",
"@  c #100908",
"#  c #10100F",
"$  c #130E10",
"%  c #140F11",
"&  c #131312",
"*  c #141011",
"=  c #131413",
"-  c #141413",
";  c #141514",
":  c #171715",
">  c #1B1715",
",  c #1C1715",
"<  c #171817",
"1  c #181816",
"2  c #1E1A17",
"3  c #151718",
"4  c #161819",
"5  c #191A19",
"6  c #1F1A18",
"7  c #191B1C",
"8  c #1B1E1F",
"9  c #26201D",
"0  c #28221F",
"q  c #1C1F20",
"w  c #291F22",
"e  c #292320",
"r  c #2A2420",
"t  c #2C2622",
"y  c #292E2F",
"u  c #322629",
"i  c #382B2F",
"p  c #232930",
"a  c #2A2F30",
"s  c #2F3536",
"d  c #313637",
"f  c #323738",
"g  c #333839",
"h  c #34393B",
"j  c #353B3D",
"k  c #373D3E",
"l  c #383E3F",
"z  c #413237",
"x  c #3B4243",
"c  c #3C4243",
"v  c #3D4345",
"b  c #3E4547",
"n  c #3F4749",
"m  c #3E494F",
"M  c #265965",
"N  c #295C68",
"B  c #404748",
"V  c #41494B",
"C  c #434B4D",
"Z  c #444B4D",
"A  c #434C4D",
"S  c #454D4E",
"D  c #404B51",
"F  c #414D52",
"G  c #474F51",
"H  c #434F55",
"J  c #495153",
"K  c #4B5355",
"L  c #4B5455",
"P  c #4C5456",
"I  c #4E5658",
"U  c #4F5859",
"Y  c #50595B",
"T  c #515A5C",
"R  c #535C5E",
"E  c #545D5F",
"W  c #4E5C61",
"Q  c #526166",
"!  c #556469",
"~  c #43707A",
"^  c #49747E",
"/  c #A36E10",
"(  c #A46F11",
")  c #A57111",
"_  c #4E7881",
"`  c #537B85",
"'  c #547D86",
"]  c #577F88",
"[  c #598089",
"{  c #638891",
"}  c #658992",
"|  c #6B8E96",
" . c #6E9098",
".. c #73949B",
/* pixels */
"                                                                                                                                ",
"E E E E E E E E E E E E C E E E E C E A C A 1   E E E E E E E E E E E E E E E E E E E E E E E E E E E E E E E E E E E A E A E E ",
"C C C C C C C C C C C C C C C C C C C C C C 1   R C C C C C C C C C C C C C C C C C C C C V C C C C C C C C C C C C C C C C C C ",
"C C C C C C C C C V C V C C C C C V V C C V :   T C C C C C C C V C V C C C C C C C C C C C C C C C C C C C C C C C C C C C C C ",
"V V V V V V V V V V V V V V V V z ..T V V V :   T V z ..T V V V V V V V V V V V V V V V V V V V V V V V V V V V V V V V V V V V ",
"V V V V V V V V V V V V V V V V z Y Y V V V :   Y V z Y Y V V V V V V V V V V V V V V V V V V V V V V V V V V V V V V V V V V V ",
"V V V V V V V V V V V V V V V V z z V V V V :   Y V z z V V V V V V V V V V V V V V V V V V V V V V V V V V V V V V V V V V V V ",
"n n n n n n n n n n n n n n n n n n n n n n :   U n n n n n n n n n n n n n n n n n n n n n n n n n n n n n n n n n n n n n n n ",
"I I I I I I I I I I I I I I I I I I I I I I t :  .I I I I I I I I I I I I I I I I I I I I I I I I I I I I I I I I I I I I I I I ",
"b b b b b b b b b b b b b b b b b b b b b b :   P b b b b b b b b b b b b b b b b b b b b b b b b b b b b b b b b b b b b b b b ",
"P P P P P P P P P P P P P P P P P P P P P P r : | P P P P P P P P P P P P P P P P P P P P P P P P P P P P P P P P P P P P P P P ",
"K K K K K K K K K K K K K K K K K K K K K L :   | K K K K K K K K K L K K K K K K K K K K K K K K K K K K K K K K K K K K K K K ",
"K K K K K K K K K K K K K K K K K K K K K K r : | K K K K K K K K K K K K K K K K K K K K K K K K K K K K K K K K K K K K K K K ",
"J J J J J J J J J J J J J J J J J J J J J J e - } J J J J J J J J J J J J J J J J J J J J J J J J J J J J J J J J J J J J J J J ",
"J J J J J J J J J J J J J J J J J J J J J J e - } J J J J J J J J J J J J J J J J J J J J J J J J J J J J J J J J J J J J J J J ",
"G G G G G G G G G G G G G G G G G G G G G G - - ! G G G } G G G G G G G } G G G G G G G G G G G G G G G G G G G G G G G G G G G ",
"G G G G G G S G G S G G G G G G G G G G G G 0 - { G G i G S G G G G G i S G G G G G S G G G S G G S G G G G S G G G G G G G G G ",
"S S S S S S S S S S S S S S S S S S S S S S - - Q S S S S S S S S S S S S S S S S S S S S S S S S S S S S S S S S S S S S S S S ",
"S S S S S S Z S S S Z Z S Z Z S Z S S Z S Z 9 & Q Q Q Q Q Q Q Q Q Q Q S Q S Q S Z S Z S S S S S S Z S S S S S Z S S S Z S S S S ",
"C C C C C C C C C C C C C C C C C C C C C C 9 9 9 9 9 9 9 9 9 9 9 & 9 & 9 & & &   k C C C C C C C C C C C C C C C C C C C C C C ",
"V V V V V V V V V V V V V V V V V V V V V V j 9 9 9 9 9 9 9 9 9 9 9 & 9 & 9 & & &   V V V V V V V V V V V V V V V V V V V V V V ",
"V V V V V V V V V V V V V V V V V V V V V V V V V V V V V V V V V V V V V V V V &   W V V V V V V V V V V V V V V V V V V V V V ",
"B B B B B B B B B B B B B B B B B B B B B B B B B B B B B B B B B B B B B B B B &   [ B B B B B B B B B B B B B B B B B B B B B ",
"b b b b b b b b b b b b b b b b b b b b b b b b b b b b [ b b b b b b b [ b b b &   [ b b b b b b b b b b b b b b b b b b b b b ",
"b b b b b b b b b b b b b b b b b b b b b b b b b b b u b b b b b b b u b b b b &   ] b b b b b b b b b b b b b b b b b b b b b ",
"v v v v v v v v v v v v v v v v v v v v v v v v v v v v v v v v v v v v v v v v &   ' v v v v v v v v v v v v v v v v v v v v v ",
"c x c c x c c x x c c c c c c c c x c c c c c c x c x c x c c c x x x c c c x c &   ' c c x c c c c c c c x c x c c c c c c c c ",
"x x x x x x x x x x x x x x x x x x x x x x x x x x x x x x x x x x x x x x x x #   ` x x x x x x x x x x x x x x x x x x x x x ",
") ) ) ) ) ) ) ) ) ) ) ) ) ) ) ) ) ) ) ) ) ) ) ) ) ) ) ) ) ) ) ) ) ) ) ) ) ) ) x #   ` x ) ) ) ) ) ) ) ) ) ) ) ) ) ) ) ) ) ) ) ) ",
"( ( ( ( ( ( ( ( ( ( ( ( ( ( ( ( ( ( ( ( ( ( ( ( ( ( ( ( ( ( ( ( ( ( ( ( ( ( ( l #   H l ( ( ( ( ( ( ( ( ( ( ( ( ( ( ( ( ( ( ( ( ",
"/ / / / / / / / / / / / / / / / / / / / / / / / / / / / / / / / / / / / / / / k # # _ k / / / / / / / / / / / / / / / / / / / / ",
"/ / / / / / / / / / / / / / / / / / / / / / / / / / / / / / / / / / / / / / / k O 6 F k / / / / / / / / / / / / / / / / / / / / ",
"j j j j j j j j j j j j j j j j j j j j j j j j j j j j j j j j j j j j j j j j 2 O D j j j j j j j j j j j j j j j j j j j j j ",
"h h h h h h h h h h h h h h h h h h h h h h h h h h h h h h h h h h e ^ a h h h O 2 m h e ^ a h h h h h h h h h h h h h h h h h ",
"g g g g g g g g g g g g g g g g g g g g g g g g g g g g g g g g g g w y y g g g 2 O g g w y y g g g g g g g g g g g g g g g g g ",
"f f f f f f f f f f f f f f f f f f f f f f f f f f f f f f f f f f w w f f f f O 2 f f w w f f f f f f f f f f f f f f f f f f ",
"d d d d d d d d d d d d d d d d d d d d d d d d d d d d d d d d d d d d d d d d 2 , d d d d d d d d d d d d d d d d d d d d d d ",
"~ ~ ~ ~ ~ ~ ~ ~ ~ ~ ~ ~ ~ ~ ~ ~ ~ ~ ~ ~ ~ ~ ~ ~ ~ ~ ~ ~ ~ ~ ~ ~ ~ ~ ~ ~ ~ s ~ s > > s ~ s ~ ~ ~ ~ ~ ~ s ~ s ~ s ~ s ~ ~ ~ ~ ~ ~ ",
"                                                                                                                                ",
"                                                                                                                                ",
"& O   O & O O O & O   O & O O O & O   O & O O O & O   O & O O O & O   O & O O O & O   O & O O O & O   O & O O O & O   O & O O O ",
"5 o   5 5 & o 5 5 o   5 5 & o 5 5 o   5 5 & o 5 5 o   5 5 & o 5 5 o   5 5 & o 5 5 o   5 5 & o 5 5 o   5 5 & o 5 5 o   5 5 & o 5 ",
"5 o   5 5 & & 5 5 o   5 5 & & 5 5 o   5 5 & & 5 5 o   5 5 & & 5 5 o   5 5 & & 5 5 o   5 5 & & 5 5 o   5 5 & & 5 5 o   5 5 & & 5 ",
"1 o   1 1 & & 5 5 o   5 1 & & 5 5 o   1 5 & & 1 1 o   1 1 & & 5 5 o   1 1 & & 1 5 o   1 1 & & 5 1 o   5 5 & & 5 5 o   1 1 & & 1 ",
"< & o < < & & < < & o < < & # < < # o < < & & < < & o < < & # < < # o < < # & < < & o < < & & < < & o < < & & < < & o < < & # < ",
"< X   < < # O < < X   < < O # < < X   < < O O < < X   < < O O < < X   < < O O < < X   < < # O < < X   < < O # < < X   < < O O < ",
": O X : : O O : : O X : : O O : : O X : : O O : : O X : : O O : : O X : : O O : : O X : : O O : : O X : : O O : : O X : : O O : ",
": O   : : O O : : O   : : O O : : O   : : O O : : O   : : O O : : O   : : O O : : O   : : O O : : O   : : O O : : O   : : O O : ",
": O X : : O O : : O X : : O O : : O X : : O O : : O X : : O O : : O X : : O O : : O X : : O O : : O X : : O O : : O X : : O O : ",
": O X : : O O : : O X : : O O : : O X : : O O : : O X : : O O : : O X : : O O : : O X : : O O : : O X : : O O : : O X : : O O : ",
": X X : : O O : : X X : O O O : : X X : : O O : : X X : O O O : : X X : : O O = : X X : O O O : : X X : - O O : : X X : O O O : ",
"= O X = = O O = = O X = = O O = = O X = = O O = = O X = = O O = = O X = = O O = = O X = = O O = = O X = = O O = = O X = = O O = ",
"O X   = O O O & O X   & O O O & O X   & O O O & O X   = O O O = O X   = O O O = O X   & O O O = O X   = O O O = O X   & O O O & ",
"& X X O & O O & & X X O & O O & & X X O & O O & & X X O & O O & & X X O & O O & & X X O & O O & & X X O & O O & & X X O & O O & ",
"O X   & O O X & O X   & O O X & O X   & O O X & O X   & O O X & O X   & O O X & O X   & O O X & O X   & O O X & O X   & O O X & ",
"o     o o X   o o     o o X   o o     o o X   o o     o o X   o o     o o X   o o     o o X   o o     o o X   o o     o o X   o ",
"N N N N N N N N N p N N N N p N p N p N p N p p p p p p N p N p N p N N N N N N N N N N N N N N N N N N N N N N N p N N N N p N ",
"q q q q q q q q 4 q q q q q q q q q q q q q q q q 4 q q q q q q q q q q q q q 4 q 4 q q q q q q 4 q 4 q q q q q 4 q q q q q q q ",
"8 4 8 8 8 8 8 4 8 8 8 8 8 8 8 8 8 8 8 8 8 8 8 4 4 8 8 8 8 8 8 8 8 8 8 8 8 8 8 8 4 8 8 8 8 8 8 8 8 4 8 8 8 8 8 4 8 8 8 8 8 8 8 8 ",
"4 8 8 M 4 8 8 8 8 8 8 M 3 8 8 8 8 8 8 M 3 8 8 3 8 8 8 M 4 8 8 8 8 8 8 M 3 8 8 3 8 8 8 M 4 8 8 8 3 8 8 M 3 8 8 8 8 8 8 M 3 8 8 8 ",
"8 8 * 3 : 8 8 8 8 8 * 3 : 8 8 8 8 8 * : 3 8 3 8 3 8 * : 3 8 8 8 8 8 * 3 3 8 8 8 8 8 * : 3 8 8 : 8 8 * 3 : 8 8 8 8 8 * 3 3 8 8 : ",
": 7 % % 7 7 7 7 7 7 % % 7 7 7 7 7 7 % % 7 7 7 : 7 7 % % 7 7 7 7 7 7 % % 7 7 7 7 7 7 % % 7 7 : : 7 7 % % 7 7 7 7 7 7 % % 7 7 : 7 ",
"5 5 5 5 5 5 5 5 5 5 5 5 5 5 5 5 5 5 5 5 5 5 : 5 5 5 5 5 5 5 5 5 5 5 5 5 : 5 5 5 5 5 5 5 5 5 : 5 5 5 5 5 5 5 5 5 5 5 5 5 5 : 5 : ",
"$ @ @ @ @ @ @ $ @ $ @ $ $ $ $ $ $ $ @ $ @ $ . $ . $ . . . . $ . $ $ $ $ $ $ $ $ @ $ @ $ $ @ $ @ $ @ @ @ @ @ @ $ @ $ @ $ $ $ $ $ "
};