/* XPM */
static char *_24905307c234ad7b69fdcbf31542114gCa682tIMKNYebIY[] = {
/* columns rows colors chars-per-pixel */
"64 64 106 2 ",
"   c black",
".  c #070706",
"X  c gray3",
"o  c #0B0B0A",
"O  c #0C0C0B",
"+  c #0C0C0C",
"@  c #0F0F0E",
"#  c #100908",
"$  c #10100E",
"%  c #130E10",
"&  c #140F11",
"*  c #121211",
"=  c #151011",
"-  c #131413",
";  c #141413",
":  c #141514",
">  c #171715",
",  c #1A1614",
"<  c #1C1715",
"1  c #171817",
"2  c #181816",
"3  c #1C1815",
"4  c #151718",
"5  c #161819",
"6  c #191A19",
"7  c #1F1A18",
"8  c #191B1C",
"9  c #1B1E1F",
"0  c #201B19",
"q  c #221D1B",
"w  c #251F1C",
"e  c #26201D",
"r  c #29231F",
"t  c #1C1F20",
"y  c #261D20",
"u  c #281F21",
"i  c #292320",
"p  c #2A2421",
"a  c #2C2622",
"s  c #292E2F",
"d  c #232930",
"f  c #2A2F30",
"g  c #2D3233",
"h  c #2E3335",
"j  c #2F3536",
"k  c #313637",
"l  c #323738",
"z  c #333839",
"x  c #34393B",
"c  c #353B3C",
"v  c #373D3E",
"b  c #383E3F",
"n  c #413237",
"m  c #383F40",
"M  c #3B4142",
"N  c #3C4243",
"B  c #3C4344",
"V  c #3E4547",
"C  c #3F4749",
"Z  c #265965",
"A  c #295B67",
"S  c #295C68",
"D  c #404748",
"F  c #424A4B",
"G  c #434B4D",
"H  c #444B4D",
"J  c #434C4D",
"K  c #464E4F",
"L  c #414D52",
"P  c #474F50",
"I  c #445055",
"U  c #485051",
"Y  c #485052",
"T  c #495153",
"R  c #4B5455",
"E  c #4C5456",
"W  c #465358",
"Q  c #47545A",
"!  c #49565B",
"~  c #4E5658",
"^  c #4A575C",
"/  c #4F5859",
"(  c #4B595E",
")  c #50595B",
"_  c #515A5C",
"`  c #535C5E",
"'  c #545D5F",
"]  c #4D5B60",
"[  c #505F64",
"{  c #406D78",
"}  c #43707A",
"|  c #45717B",
" . c #49747E",
".. c #A16A0F",
"X. c #A16B10",
"o. c #A36E10",
"O. c #A46F11",
"+. c #A57111",
"@. c #5A818A",
"#. c #5D838C",
"$. c #61868F",
"%. c #638891",
"&. c #678B93",
"*. c #6B8E96",
"=. c #73949B",
"-. c #74949C",
/* pixels */
"                                                                                                                                ",
"' ' ' ' ' ' ' ' ` ` ' ' ' J ' J ' G ' J J G 2   ' ' ' ' ' ' G ' G ` G ' G J J G     G G ' J ' G ' ' ' ' ' ' ' ' ` ` ' J ' G ' ' ",
"G G G G G G G G G G G G G G G G G G G G G G 2   ` G G G G G G G G G G G G G G G     G G G G G G G G G G G G G G G G G G G G G G ",
"G F F G G G G G F G G G G G G G F G G G F G >   _ G -.G G G G G G F F G G -.G G     F G G G G G G G F G G G F G G G G G G G G G ",
"F F F F F F F F F F F F F F F F n =._ F F F >   _ n F F F F F F F F F F n F F F     F F n =._ F F F F F F F F F F F F F F F F F ",
"F F C C F F F F F F F F F F F F n ) ) F F F >   ) F C C F F F F F F F F F F F F   > F F n ) ) F F F C C F F F F F F F F F F F F ",
"F F C C F F F F C C C C F F F F n n F F F F >   ) F C F F F F F C C C C F F F F >   F F n n F F F F C F F F F F F F C C F F F F ",
"C C C C C C C C C C C C C C C C C C C C C C >   / C C C C C C C C C C C C C C C   > C C C C C C C C C C C C C C C C C C C C C C ",
"~ ~ ~ ~ ~ ~ ~ ~ ~ ~ ~ ~ ~ ~ ~ ~ ~ ~ ~ ~ ~ ~ a > ~ C C V C C C C V V C C V C C C >   ~ ~ ~ ~ ~ ~ ~ ~ ~ ~ ~ ~ ~ ~ ~ ~ ~ ~ ~ ~ ~ ~ ",
"V V V V V V V V V V V V V V V V V V V V V V >   E V V V V V V V V V V V V V V V   > V V V V V V V V V V V V V V V V V V V V V V ",
"E E E E E E E E E E E E E E E E E E E E E E p > *.E E E E E E E E E E E E E E E >   E E E E E E E E E E E E E E E E E E E E E E ",
"E E E E E E E R E R E E E E E E E E E E E E >   E V V V V V V V V V V V V V V V   p E E E E E R E E E E E R E E E E E E E E E E ",
"E E E E E E T E E E E E E E T E E E E E E E p ; *.E E E E E E E E E E E E E E E p ; E E E E E E E E E E E E T E E E E E E E E E ",
"T T T T T T T T T T T T T T T T T T T T T T i ; &.T T T T T T T T T T T T T T T ; i T T T T T T T T T T T T T T T T T T T T T T ",
"T T T T T T T T T T T T T T T T T T T T T T i ; &.T T T T T T T T T T T T T T T i ; T T T T T T T T T T T T T T T T T T T T T T ",
"P P P P P P P P P P P P P P P P P P P P P P r ; &.P P P K P P P P P P P P P P P ; r P P P P P P P P P P P P P P P P P P P P P P ",
"P P P P P P P P K P P P P P P P P P P P P P r ; %.P K P P P P P P P P P P P P P r = K P K P P P P P P P P P P P P P K P K P P P ",
"H K K H K H K K H H H H K K K K K K K K K K ; ; $.K K K K K H K H H H H K K K K = e H K K K K K K K K K K H K K K K K K K H K K ",
"H K K H K H H K K K H K K H K H H K K K K K e * $.K K H K H H H K K K K K K K K e e H K K H H H H H H H K H H K K K H K H H K K ",
"G G G G G G G G G G G G G G G G G G G G G G * * [ G G G G G G G G G G G G G G G * e G G G G G G G G G G G G G G G G G G G G G G ",
"F F F F F F F F F F F F F F F F F F F F F F e * #.F F F F F F F F F F F F F F F e e F F F F F F F F F F F F F F F F F F F F F F ",
"F F D D F F F F F F F F F F F F D D F F F F * * ] F F F D F F F F F F F F F F F * w F F F F F F F F D D F F F F F F D D F F F F ",
"D D D D D D D D D D D D D D D D D D D D D D w * @.D D D D D D D D D D D D D D D w w D D D D D D D D D D D D D D D D D D D D D D ",
"V V V V V V V V V V V V V V V V V V V V V V * * ( V V V V V V V V V V V V V V V * w V V V V V V V V V V V V V V V V V V V V V V ",
"V V V V V V V V V V V V V V V V V V V V V V * * ^ V V V V V V V V V V V V V V V * q V V V V V V V V V V V V V V V V V V V V V V ",
"B B B B B B B B B B B B B B B B B B B B B B * * ! B B B B B B B B B B B B B B B * q B B B B B B B B B B B B B B B B B B B B B B ",
"M M N N N N N N N N N M N N M M M M M N M N * * Q M N N N N M N N N M N M M N N * q N N N N M N N N N N N N N N M N N N N M N N ",
"M M M M M M M M M M M M M M M M M M M M M M $ $ W M M M M M M M M M M M M M M M q q M M M M M M M M M M M M M M M M M M M M M M ",
"+.+.+.+.+.+.+.+.+.+.+.+.+.+.+.+.+.+.+.+.+.M $ $ M M M M M M M M M M M M M M M M $ q M +.+.+.+.+.+.+.+.+.+.+.+.+.+.+.+.+.+.+.+.+.",
"O.O.O.O.O.O.O.O.O.O.O.O.O.O.O.O.O.O.O.O.O.b $ $ I b b b b m m b b b b b m b b b 0 0 b O.O.O.O.O.O.O.O.O.O.O.O.O.O.O.O.O.O.O.O.O.",
"o.o.o.o.o.o.o.o.o.o.o.o.o.o.o.o.o.o.o.o.o.v $ $ v o.o.o.o.o.o.o.o.o.o.o.o.o.o.v $ 7 v o.o.o.o.o.o.o.o.o.o.o.o.o.o.o.o.o.o.o.o.o.",
"o.o.o.o.o.o.o.o.o.o.o.o.o.o.o.o.o.o.o.o.o.v @ 7 L o.o.o.o.o.o.o.o.o.o.o.o.o.o.v 7 7 v o.o.o.o.o.o.o.o.o.o.o.o.o.o.o.o.o.o.o.o.o.",
"c c c c c c c c c c c c c c c c c c c c c c 3 @ c o.o.X.o.o.o.o.o.o.o.o.o.o.o.c 3 3 c c c c c c c c c c c c c c c c c c c c c c ",
"x x x x x x x x x x x x x x x x i  .f x x x @ 3 x ............................x 3 3 x x i  .f x x x x x x x x x x x x x x x x x ",
"z z z z z z z z z z z z z z z z u s s z z z 3 @ z z z z z z z z z z z z z z z z 3 3 z z u s s z z z z z z z z z z z z z z z z z ",
"l l l l l l l l l l l l l l l l u u l l l l @ 3 l l l l l l l l l l l l l l l l 3 3 l l u u l l l l l l l l l l l l l l l l l l ",
"k k k k k k k k k k k k k k k k k k k k k k 3 < k k | k k k k k k k k k k | k k < 3 k k k k k k k k k k k k k k k k k k k k k k ",
"} } } } } } } } } } } } } } } } } } } j } j , , j y j j j j j j j j j j y j j j , , j } j } } } } } } j } j } j } j } } } } } } ",
"                                              , h h h h h h h h h h h h h h h h ,                                               ",
"                                                g h { { { { { { { { { { g { g g                                                 ",
"* @   @ * @ @ @ * @   @ * @ @ @ * @   @ * @                                           @ * @ @ @ * @   @ * @ @ @ * @   @ * @ @ @ ",
"6 O   6 6 * O 6 6 O   6 6 * O 6 6 O   6 6 * O                                     O   6 6 * O 6 6 O   6 6 * O 6 6 O   6 6 * O 6 ",
"6 O   6 6 * * 6 6 O   6 6 * * 6 6 O   6 6 * * 6 O O   O * O O O * O   O * O O O * O   6 6 * * 6 6 O   6 6 * * 6 6 O   6 6 * * 6 ",
"2 O   2 2 * * 6 6 O   2 2 * * 2 6 O   2 6 * * 2 2 O   6 2 * * 2 2 O   2 2 * * 2 6 O   2 6 * * 6 6 O   2 6 * * 6 2 O   2 6 * * 6 ",
"1 * O 1 1 * * 1 1 * o 1 1 * * 1 1 * O 1 1 * * 1 1 * O 1 1 * * 1 1 * O 1 1 * * 1 1 $ O 1 1 * * 1 1 $ o 1 1 * * 1 1 * O 1 1 * * 1 ",
"1 o   1 1 $ @ 1 1 o   1 1 @ @ 1 1 o   1 1 @ $ 1 1 o   1 1 $ @ 1 1 o   1 1 @ @ 1 1 o   1 1 @ @ 1 1 o   1 1 @ @ 1 1 o   1 1 $ @ 1 ",
"> @ o > > @ @ > > @ o > > @ @ > > @ o > > @ @ > > @ o > > @ @ > > @ o > > @ @ > > @ o > > @ @ > > @ o > > @ @ > > @ o > > @ @ > ",
"> @   > > @ @ > > @   > > @ @ > > @   > > @ @ > > @   > > @ @ > > @   > > @ @ > > @   > > @ @ > > @   > > @ @ > > @   > > @ @ > ",
"> @ o > > @ @ > > @ o > > @ @ > > @ o > > @ @ > > @ o > > @ @ > > @ o > > @ @ > > @ o > > @ @ > > @ o > > @ @ > > @ o > > @ @ > ",
"> @ o > > @ @ > > @ o > > @ @ > > @ o > > @ @ > > @ o > > @ @ > > @ o > > @ @ > > @ o > > @ @ > > @ o > > @ @ > > @ o > > @ @ > ",
"> o o > > @ @ > > o o > @ @ @ > > o o > > @ @ > > o o > @ @ @ > ; o o > > @ @ > > o o > @ @ @ > > o o > > @ @ > > o o > @ @ @ > ",
"- @ o - - @ @ - - @ o - - @ @ * - @ o - * @ @ - - @ o - * @ @ - - @ o - * @ @ - - @ o - - @ @ * - @ o - * @ @ - - @ o - - @ @ - ",
"@ o   * @ @ @ * @ o   - @ @ @ * @ o   * @ @ @ * @ o   * @ @ @ * @ o   * @ @ @ * @ o   - @ @ @ - @ o   - @ @ @ * @ o   * @ @ @ - ",
"* o o @ * @ @ * * o o @ * @ @ * * o o @ * @ @ * * o o @ * @ @ * * o o @ * @ @ * * o o @ * @ @ * * o o @ * @ @ * * o o @ * @ @ * ",
"@ o   * @ @ o * o o   * @ @ o * @ o   * @ @ o * o o   * @ @ o * @ o   * @ @ o * o o   * @ @ o * @ o   * @ @ o * o o   * @ @ o * ",
"O     O O o   O o     O O o   O O     O O o   O o     O O o   O O     O O o   O o     O O o   O O     O O o   O o     O O o   O ",
"S S S A S S S S S d S S S S d S d S d S d S d d d d d d S d S d S d S S S S S S S S S S A S S S S S S S S S S S S d S S S S d S ",
"t t 9 t t t t t 5 t t t t t t t t t t t t t t t t 5 t t t t t t t t 9 t t t t 5 t 5 t t t t t t 5 t 5 t t t t t 5 t t t t t t t ",
"9 5 9 9 9 9 9 5 9 9 9 9 9 9 9 9 9 9 9 9 9 9 9 5 5 9 9 9 9 9 9 9 9 9 9 9 9 9 9 9 5 9 9 9 9 9 9 9 9 5 9 9 9 9 9 5 9 9 9 9 9 9 9 9 ",
"5 9 9 Z 4 9 9 9 9 9 9 Z 5 9 9 9 9 9 9 Z 5 9 9 4 9 9 9 Z 5 9 9 9 9 9 9 Z 5 9 9 5 9 9 9 Z 4 9 9 9 4 9 9 Z 5 9 9 9 9 9 9 Z 5 9 9 9 ",
"9 9 = 4 4 9 9 9 9 9 = 4 > 9 9 9 9 9 = 4 4 9 4 9 4 9 = 4 4 9 9 9 9 9 = > 4 9 9 9 9 9 = 4 4 9 9 4 9 9 = > > 9 9 9 9 9 = > 4 9 9 4 ",
"> 8 & & 8 8 8 9 8 8 & & 8 8 8 8 8 8 & & 8 8 8 > 8 8 & & 8 8 8 8 8 8 & & 8 8 8 9 8 8 & & 8 8 > > 8 8 & & 8 8 8 8 8 8 & & 8 8 > 8 ",
"6 6 6 6 6 6 6 6 6 6 6 6 6 6 6 6 6 6 6 6 6 6 > 6 6 6 6 6 6 6 6 6 6 6 6 6 > 6 6 6 6 6 6 6 6 6 > 6 6 6 6 6 6 6 6 6 6 6 6 6 6 > 6 > ",
"% # # # # # # % # % # % % % % % % % # % # % . % . % . . . . % . % % % % % % % % # % # % % # % # % # # # # # # % # % # % % % % % "
};