/* XPM */
static char *e85b6ee86e154cae828f81667fd71dc9DsYYC5lqBRDXiDc2[] = {
/* columns rows colors chars-per-pixel */
"64 64 93 2 ",
"   c black",
".  c #070706",
"X  c gray3",
"o  c #0B0B0A",
"O  c #0C0C0B",
"+  c #0C0C0C",
"@  c #0F0F0E",
"#  c #100908",
"$  c #10100F",
"%  c #11110F",
"&  c #130E10",
"*  c #140F11",
"=  c #131312",
"-  c #151011",
";  c #131413",
":  c #141412",
">  c #171716",
",  c #1B1715",
"<  c #1C1715",
"1  c #171817",
"2  c #181816",
"3  c #1D1916",
"4  c #151718",
"5  c #161919",
"6  c #191A19",
"7  c #1F1A18",
"8  c #191B1C",
"9  c #1B1E1F",
"0  c #241F1C",
"q  c #27211E",
"w  c #29221F",
"e  c #1C1F20",
"r  c #281F21",
"t  c #2A2320",
"y  c #2B2521",
"u  c #2C2622",
"i  c #292E2F",
"p  c #232930",
"a  c #2A2F30",
"s  c #2F3536",
"d  c #313637",
"f  c #323738",
"g  c #333839",
"h  c #34393B",
"j  c #353B3C",
"k  c #373D3E",
"l  c #383E3F",
"z  c #403135",
"x  c #3B4142",
"c  c #3C4243",
"v  c #3C4344",
"b  c #3E4547",
"n  c #3F4749",
"m  c #255965",
"M  c #295B67",
"N  c #295C68",
"B  c #404748",
"V  c #424A4B",
"C  c #424B4C",
"Z  c #444B4D",
"A  c #434C4D",
"S  c #454C4E",
"D  c #474F50",
"F  c #445055",
"G  c #495153",
"H  c #4B5455",
"J  c #4C5456",
"K  c #465358",
"L  c #49565B",
"P  c #4E5658",
"I  c #4A575C",
"U  c #4F5859",
"Y  c #4B595E",
"T  c #4D5A5F",
"R  c #50595B",
"E  c #515A5C",
"W  c #535C5E",
"Q  c #545D5F",
"!  c #4E5C61",
"~  c #515F64",
"^  c #526166",
"/  c #43707A",
"(  c #49747E",
")  c #A26D10",
"_  c #A46F11",
"`  c #A57111",
"'  c #5D838C",
"]  c #60858E",
"[  c #638891",
"{  c #658992",
"}  c #698C94",
"|  c #6E9098",
" . c #73949B",
/* pixels */
"                                                                                                                                ",
"Q Q Q Q Q Q Q Q Q W Q Q Q C Q A Q Q Q Q Q Q Q Q Q Q C Q C C A 2   Q Q Q Q Q Q Q Q Q Q Q Q Q Q Q Q Q Q Q Q Q Q Q Q W Q C Q C Q Q ",
"C C C C C C C C C C C C C C C C C C C C C C C C C C C C C C C 2   W C C C C C C C C C C C C C C C C C C C C C C C C C C C C C C ",
"C C C C C C C V V V C V C C V C C C V C C C C C V C C C C C V >   E V C C C C C C C C C V C C C C C V V C C C C C C C C C C C C ",
"V V V V V V V V V V V V V V V V V V V V V V V V V z  .E V V V >   E V z  .E V V V V V V V V V V V V V V V V V V V V V V V V V V ",
"V V B B V V V V V V V V V V V V V V V V V B V n V z R R V V V >   R V z R R V V V V V V B B V n V V B B V V V V V V V V V V V V ",
"V V B V V V V V n n n n V V V V V V V V V n V n V z z V V V V >   R n z z V V V V V V V V B V n V V B V V V V V n n n n V V V V ",
"n n n n n n n n n n n n n n n n n n n n n n n n n n n n n n n >   U n n n n n n n n n n n n n n n n n n n n n n n n n n n n n n ",
"P P P P P P P P P P P P P P P P P P P P P P J P P P P P P P P u > | P P P P P P P P P P P P P P P P P P P P P P P P P P P P P P ",
"b b b b b b b b b b b b b b b b b b b b b b b b b b b b b b b >   J b b b b b b b b b b b b b b b b b b b b b b b b b b b b b b ",
"J J J J J J J J J J J J J J J J J J J J J J J J J J J J J J J y > } J J J J J J J J J J J J J J J J J J J J J J J J J J J J J J ",
"J J J J J J J J H J J J J J J J J J J J J J J H J J J J J J J >   } J J H J J J J J J J J J J H J J J J J J J J J J J J J J H J ",
"J J J J J J G J J J J J J J G J J J J J J J J J J J J J J J J y > } J J J J J J J J J J J J J J J J J J J J G G J J J J J J G J ",
"G G G G G G G G G G G G G G G G G G G G G G G G G G G G G G G t : { G G G G G G G G G G G G G G G G G G G G G G G G G G G G G G ",
"G G G G G G G G G G G G G G G G G G G G G G G G G G G G G G G t : { G G G G G G G G G G G G G G G G G G G G G G G G G G G G G G ",
"D D D D D D D D D D D D D D D D D D D D D D D D D D D D D D D w : { D D D D D D D D D D D D D D D D D D D D D D D D D D D D D D ",
"D S S D S D S D D D D D D D D D D D D D D D D D D D D D D D D w : [ D D S D D D D D D D D D D S D D D D D D D D D D D D D D D D ",
"S S S S S S S S S S S S S S S S S S S S S S S S S S S S S S S : : ^ S S S S S S S S S S S S S S S S S S S S S S S S S S S S S S ",
"Z S Z Z Z S S S S S S Z S S S S S Z S Z S Z S S S S Z S S Z S q = ] Z S S Z Z S S Z S Z Z Z S S S S S S S Z Z S Z S S Z S S S S ",
"C C C C C C C C C C C C C C C C C C C C C C C C C C C C C C C = = ~ C C C C C C C C C C C C C C C C C C C C C C C C C C C C C C ",
"V V V V V V V V V V V V V V V V V V V V V V V V V V V V V V V q = ' V V V V V V V V V V V V V V V V V V V V V V V V V V V V V V ",
"V V V V V V V V V V V V V V V V V V V V V V V V V V V V V V V = = ! V V V V V V V V V V V V V V V V V V V V V V V V V V V V V V ",
"B B B B B B B B B B B B B B B B B B B B B B B B B B B B B B B 0 = T B B B B B B B B B B B B B B B B B B B B B B B B B B B B B B ",
"b b b b b b b b b b b b b b b b b b b b b b b b b b b b b b b = = Y b b b b b b b b b b b b b b b b b b b b b b b b b b b b b b ",
"b b b b b b b b b b b b b b b b b b b b b b b b b b b b b b b = = I b b b b b b b b b b b b b b b b b b b b b b b b b b b b b b ",
"v v v v v v v v v v v v v v v v v v v v v v v v v v v v v v v = = L v v v v v v v v v v v v v v v v v v v v v v v v v v v v v v ",
"x c x c c c c x c c c c c c c c c c c c c c c c c c x c c c x = = x x x c c c x x c c c c x c x c c c c c x c c x c x c c c c c ",
"x x x x x x x x x x x x x x x x x x x x x x x x x x x x x x x % % K x x x x x x x x x x x x x x x x x x x x x x x x x x x x x x ",
"` ` ` ` ` ` ` ` ` ` ` ` ` ` ` ` ` ` ` ` ` ` ` ` ` ` ` ` ` ` x % % x ` ` ` ` ` ` ` ` ` ` ` ` ` ` ` ` ` ` ` ` ` ` ` ` ` ` ` ` ` ` ",
"_ _ _ _ _ _ _ _ _ _ _ _ _ _ _ _ _ _ _ _ _ _ _ _ _ _ _ _ _ _ l % % F _ _ _ _ _ _ _ _ _ _ _ _ _ _ _ _ _ _ _ _ _ _ _ _ _ _ _ _ _ _ ",
") ) ) ) ) ) ) ) ) ) ) ) ) ) ) ) ) ) ) ) ) ) ) ) ) ) ) ) ) ) k % % k ) ) ) ) ) ) ) ) ) ) ) ) ) ) ) ) ) ) ) ) ) ) ) ) ) ) ) ) ) ) ",
") ) ) ) ) ) ) ) ) ) ) ) ) ) ) ) ) ) ) ) ) ) ) ) ) ) ) ) ) ) k @ 7 k ) ) ) ) ) ) ) ) ) ) ) ) ) ) ) ) ) ) ) ) ) ) ) ) ) ) ) ) ) ) ",
"j j j j j j j j j j j j j j j j j j j j j j j j j j j j j j j 3 @ j j j j j j j j j j j j j j j j j j j j j j j j j j j j j j j ",
"h h h h h h h h h h h h h h h h h h h h h h h h h t ( a h h h @ 3 h h t ( a h h h h h h h h h h h h h h h h h h h h h h h h h h ",
"g g g g g g g g g g g g g g g g g g g g g g g g g r i i g g g 3 @ g g r i i g g g g g g g g g g g g g g g g g g g g g g g g g g ",
"f f f f f f f f f f f f f f f f f f f f f f f f f r r f f f f @ 3 f f r r f f f f f f f f f f f f f f f f f f f f f f f f f f f ",
"d d d d d d d d d d d d d d d d d d d d d d d d d d d d d d d < < d d d d d d d d d d d d d d d d d d d d d d d d d d d d d d d ",
"/ / / / / / / / / / / / / / / / / / / / / / / / / / / / s / s , , s / s / / / / / / / s / s / s / / / s / s / s / s / / / / / / ",
"                                                                                                                                ",
"                                                                                                                                ",
"= @   @ = @ @ @ = @   @ = @ @ @ = @   @ = @ @ O = @   O = @ @ @ = @   @ = @ @ @ = @   @ = @ @ @ = @   @ = @ @ O = @   @ = @ @ @ ",
"6 o   6 6 = O 6 6 O   6 6 = O 6 6 O   6 6 = O 6 6 o   6 6 = O 6 6 o   6 6 = O 6 6 O   6 6 = O 6 6 O   6 6 = O 6 6 o   6 6 = O 6 ",
"6 O   6 6 = = 6 6 O   6 6 = = 6 6 O   6 6 = = 6 6 O   6 6 = = 6 6 O   6 6 = = 6 6 O   6 6 = = 6 6 O   6 6 = = 6 6 O   6 6 = = 6 ",
"2 O   1 2 = = 2 6 O   2 1 = = 2 6 O   6 2 = = 6 6 O   5 2 = = 2 2 O   1 2 = = 2 2 O   2 5 = = 6 2 O   2 6 = = 2 6 O   1 2 = = 2 ",
"1 % O 1 1 = = 1 1 % O 1 1 @ = 1 1 % O 1 1 = = 1 1 = O 1 1 = = 1 1 = O 1 1 = = 1 1 = O 1 1 @ & 1 1 = O 1 1 = % 1 1 = O 1 1 % = 1 ",
"1 o   1 1 @ @ 1 1 o   1 1 @ @ 1 1 o   1 1 @ @ 1 1 o   1 1 @ % 1 1 o   1 1 @ @ 1 1 o   1 1 @ @ 1 1 o   1 1 @ @ 1 1 o   1 1 @ @ 1 ",
"> @ o > > @ @ > > @ o > > @ @ > > @ o > > @ @ > > @ o > > @ @ > > @ o > > @ @ > > @ o > > @ @ > > @ o > > @ @ > > @ o > > @ @ > ",
"> @   > > @ @ > > @   > > @ @ > > @   > > @ @ > > @   > > @ @ > > @   > > @ @ > > @   > > @ @ > > @   > > @ @ > > @   > > @ @ > ",
"> @ o > > @ @ > > @ o > > @ @ > > @ o > > @ @ > > @ o > > @ @ > > @ o > > @ @ > > @ o > > @ @ > > @ o > > @ @ > > @ o > > @ @ > ",
"> @ o > ; @ @ ; ; @ o ; ; @ @ > > @ o ; ; @ @ > > @ o ; > @ @ ; > @ o > ; @ @ > ; @ o > ; @ @ > > @ o > ; @ @ > ; @ o ; > @ @ ; ",
"> o o > ; @ @ ; > o o > @ @ @ ; ; o o ; ; @ @ > > o o > @ @ @ ; > o o > ; @ @ ; > o o > @ @ @ ; ; o o ; ; @ @ ; > o o > @ @ @ ; ",
"; @ o ; ; @ @ ; ; @ o ; ; @ @ ; ; @ o ; ; @ @ ; ; @ o ; ; @ @ ; ; @ o ; ; @ @ ; ; @ o ; ; @ @ = ; @ o ; ; @ @ ; ; @ o ; ; @ @ ; ",
"@ o   = @ @ @ = @ o   = @ @ @ = @ o   ; @ @ @ = @ o   ; @ @ @ = @ o   ; @ @ @ = @ o   ; @ @ @ = @ o   = @ @ @ ; @ o   ; @ @ @ = ",
"= o o @ = @ @ = = o o @ = @ @ = = o o @ = @ @ = = o o @ = @ @ = = o o @ = @ @ = = o o @ = @ @ = = o o @ = @ @ = = o o @ = @ @ = ",
"@ o   = @ @ o = o o   = @ @ o = @ o   = @ @ o = o o   = @ @ o = @ o   = @ @ o = o o   = @ @ o = @ o   = @ @ o = o o   = @ @ o = ",
"O     o O o   O o     O O o   O O     O O o   O o     O O o   O O     o O o   O o     O O o   O O     o O o   O o     O O o   O ",
"N N N N N N N N N p N N N N p N p N p N p N p p p p p p N p N p N p N N N M N N N N N N N N N N N N N N N N N N N p N N N N p N ",
"e e e e e e e e 5 e e e e e e e e e 9 e e e e e e 5 e e e e e e e e 9 e e e e 5 e 5 e e e e e e 5 e 5 e e e e e 5 e e e e e e e ",
"9 5 9 9 9 9 9 5 9 9 9 9 9 9 9 9 9 9 9 9 9 9 9 5 5 9 9 9 9 9 9 9 9 9 9 9 9 9 9 9 5 9 9 9 9 9 9 9 9 5 9 9 9 9 9 5 9 9 9 9 9 9 9 9 ",
"5 9 9 m 5 9 9 9 9 9 9 m 4 9 9 9 9 9 9 m 5 9 9 4 9 9 9 m 4 9 9 9 9 9 9 m 4 9 9 4 9 9 9 m 4 9 9 9 5 9 9 m 5 9 9 9 9 9 9 m 4 9 9 9 ",
"9 9 - 4 4 9 9 9 9 9 - 4 4 9 9 9 9 9 - 4 4 9 4 9 4 9 - 4 > 9 9 9 9 9 - 4 > 9 9 9 9 9 - 4 4 9 9 > 9 9 - 4 4 9 9 9 9 9 - > > 9 9 4 ",
"> 8 * * 8 8 8 8 9 8 * * 8 8 8 8 8 8 * * 8 8 8 > 8 8 * * 8 8 8 8 9 8 * * 8 8 8 8 8 8 * * 8 8 > > 8 8 * * 8 8 8 8 8 8 * * 8 8 > 9 ",
"6 6 6 6 6 6 6 6 6 6 6 6 6 6 6 6 6 6 6 6 6 6 ; 6 6 6 6 6 6 6 6 6 6 6 6 6 ; 6 6 6 6 6 6 6 6 6 ; 6 6 6 6 6 6 6 6 6 6 6 6 6 6 ; 6 ; ",
"& # # # # # # & # & # & & & & & & & # & # & . & . & . . . . & . & & & & & & & & # & # & & # & # & # # # # # # & # & # & & & & & "
};