/* XPM */
static char *_794db9a38a14f97dcac523955b5764ccDtwqYlZEd7fNYUf[] = {
/* columns rows colors chars-per-pixel */
"64 64 54 1 ",
"  c black",
". c #070706",
"X c #0B0B0A",
"o c #0C0C0B",
"O c #0D0D0C",
"+ c #100908",
"@ c #10100F",
"# c #130E10",
"$ c #140F11",
"% c #121211",
"& c #141011",
"* c #131413",
"= c #141413",
"- c #131616",
"; c #161716",
": c #171817",
"> c #181917",
", c #151718",
"< c #161819",
"1 c #191A19",
"2 c #191B1C",
"3 c #1B1E1F",
"4 c #1C1F20",
"5 c #232930",
"6 c #2F3536",
"7 c #313637",
"8 c #323738",
"9 c #333839",
"0 c #34393B",
"q c #353B3C",
"w c #3B4243",
"e c #3C4243",
"r c #3C4344",
"t c #3E4547",
"y c #3F4749",
"u c #255965",
"i c #295C68",
"p c #404748",
"a c #424A4B",
"s c #434B4D",
"d c #444B4D",
"f c #434C4D",
"g c #464E4F",
"h c #474F51",
"j c #485052",
"k c #495153",
"l c #4B5455",
"z c #4C5456",
"x c #4E5658",
"c c #545D5F",
"v c #43707A",
"b c #A36E10",
"n c #A46F11",
"m c #A57111",
/* pixels */
"                                                                ",
"cccccccccccccscfccccccccccfcscfccccccccccccccccccccccccccccfcscc",
"ssssssssssssssssssssssssssssssssssssssssssssssssssssssssssssssss",
"ssasssassssssssassasassssssssssssssssssassssasssssssssssasssssss",
"aaaaaaaaaaaaaaaaaaaaaaaaaaaaaaaaaaaaaaaaaaaaaaaaaaaaaaaaaaaaaaaa",
"aayyaaaaaaaaaaaaaaaayyayaayyaaaaaaaaaaaaaaaayyaaaayyaaaaaaaaaaaa",
"aayaaaaayyyyaaaaaaaaayayaayyaaaayyyyaaaaaaaaayyyaayaaaaaayyyaaaa",
"yyyyyyyyyyyyyyyyyyyyyyyyyyyyyyyyyyyyyyyyyyyyyyyyyyyyyyyyyyyyyyyy",
"xxxxxxxxxxxxxxxxxxxxzxxxxxxxxxxxzxxxxxxxxxxxzxxxxxxxxxxxxxxxxxxx",
"tttttttttttttttttttttttttttttttttttttttttttttttttttttttttttttttt",
"zzzzzzzzzzzzzzzzzzzzzzzzzzzzzzzzzzzzzzzzzzzzzzzzzzzzzzzzzzzzzzzz",
"zzzzzzzzzzzzzlzzzzzzzzzlzlzzzzzzzzzzzzzzzzzzzzzlzzzzzzlzzzzzzzzz",
"zzzzzzkkzzzzzzkkzzzzzzzzzzzzzzzzzzzzzzzzzzzzzzzzzzzzzzkkzzzzzzkk",
"kkkkkkkkkkkkkkkkkkkkkkkkkkkkkkkkkkkkkkkkkkkkkkkkkkkkkkkkkkkkkkkk",
"kkkkkkkkkkkkkkkkkkkkkkkkkkkkkkkkkkkkkkkkkkkkkkkkkkkkkkkkkkkkkkkk",
"hhhhhhhhhhhhhhhhhhhhghhhhhhhhhhhghhhhhhhhhhhhhhhhhhhhhhhhhhhhhhg",
"hhgghghhgghhhhhhhgghhhghhhhhhghhhhhhhghhhggghghhhhhhhhhhhhhhhhhh",
"gggggdggdgdggdggggggggdgggggddgggdgdgggggdddgggggggggdgggggdgdgg",
"gggdddggddddggdggggdgddgdgdddgddgdgggggggdddgggdgggddddggdddgddg",
"ssssssssssssssssssssssssssssssssssssssssssssssssssssssssssssssss",
"aaaaaaaaaaaaaaaaaaaaaaaaaaaaaaaaaaaaaaaaaaaaaaaaaaaaaaaaaaaaaaaa",
"ppppaaaaaaaaaaaaaappaaaaaaaaaaaaaaaaaaaaaaaaaaapppppaaaaaappaaaa",
"pppppppppppppppppppppppppppppppppppppppppppppppppppppppppppppppp",
"tttttttttttttttttttttttttttttttttttttttttttttttttttttttttttttttt",
"tttttttttttttttttttttttttttttttttttttttttttttttttttttttttttttttt",
"rrrrrrrrrrrrrrrrrrrrrrrrrrrrrrrrrrrrrrrrrrrrrrrrrrrrrrrrrrrrrrrr",
"eeweeeewewweeeeewwwweeeeweeeeeeeeweeeeweweeeweeeeeweeeeweeeeewee",
"wwwwwwwwwwwwwwwwwwwwwwwwwwwwwwwwwwwwwwwwwwwwwwwwwwwwwwwwwwwwwwww",
"mmmmmmmmmmmmmmmmmmmmmmmmmmmmmmmmmmmmmmmmmmmmmmmmmmmmmmmmmmmmmmmm",
"nnnnnnnnnnnnnnnnnnnnnnnnnnnnnnnnnnnnnnnnnnnnnnnnnnnnnnnnnnnnnnnn",
"bbbbbbbbbbbbbbbbbbbbbbbbbbbbbbbbbbbbbbbbbbbbbbbbbbbbbbbbbbbbbbbb",
"bbbbbbbbbbbbbbbbbbbbbbbbbbbbbbbbbbbbbbbbbbbbbbbbbbbbbbbbbbbbbbbb",
"qqqqqqqqqqqqqqqqqqqqqqqqqqqqqqqqqqqqqqqqqqqqqqqqqqqqqqqqqqqqqqqq",
"0000000000000000000000000000000000000000000000000000000000000000",
"9999999999999999999999999999999999999999999999999999999999999999",
"8888888888888888888888888888888888888888888888888888888888888888",
"7777777777777777777777777777777777777777777777777777777777777777",
"vvvvvvvvvvvvvvvvvvvvvvvvvvvv6v6vvvv6vvvvvvv6vvvvvvv6v6v6v6vvvvvv",
"                                                                ",
"                                                                ",
"%O O%OOO%O O%OOO%O O%OOO%O O%OOO%O O%OOO%O O%OOO%O O%OOO%O O%OOO",
"1o 11%o11o 11%o11o 11%o11o 11%o11o 11%o11o 11%o11o 11%o11o 11%o1",
"1o 11%%11o 11%%11o 11%%11o 11%%11o 11%%11o 11%%11o 11%%11o 11%%1",
"1o >>%%>>o 1>%%>>o >>%%>>o >>%%>>o >1%%>>o 11%%>>o 1>%%1>o 11%%1",
":%o::%%::%o::%@::@o::%%::%o::%@::@o::%%::%o::%%::%o::%%::%X::%%:",
":X ::OO::X ::OO::X ::OO::X ::OO::X ::OO::X ::OO::X ::OO::X ::OO:",
";OX;;OO;;OX;;OO;;OX;;OO;;OX;;OO;;OX;;OO;;OX;;OO;;OX;;OO;;OX;;OO;",
";O ;;OO;;O ;;OO;;O ;;OO;;O ;;OO;;O ;;OO;;O ;;OO;;O ;;OO;;O ;;OO;",
";OX;;OO;;OX;;OO;;OX;;OO;;OX;;OO;;OX;;OO;;OX;;OO;;OX;;OO;;OX;;OO;",
";OX;;OO;;OX;;OO;;OX;;OO;;OX;;OO;;OX;;OO;;OX;;OO;;OX;;OO;;OX;;OO;",
";XX=;OO;;XX;OOO;;XX;;OO;=XX;OOO;;XX;;OO;;XX;OOO=;XX;;OO=;XX;OOO;",
"*OX**OO**OX**OO**OX**OO**OX**OO**OX**OO**OX**OO**OX**OO**OX**OO*",
"OX %OOO%OX %OOO%OX %OOO*OX %OOO%OX *OOO*OX *OOO%OX *OOO%OX %OOO%",
"%XXO%OO%%XXO%OO%%XXO%OO%%XXO%OO%%XXO%OO%%XXO%OO%%XXO%OO%%XXO%OO%",
"OX %OOX%OX %OOX%OX %OOX%OX %OOX%OX %OOX%OX %OOX%OX %OOX%OX %OOX%",
"o  ooX oo  ooX oo  ooX oo  ooX oo  ooX oo  ooX oo  ooX oo  ooX o",
"iiiiiiiii5iiii5i5i5i5i555555i5i5i5iiiiiiiiiiiiiiiiiiiiiii5iiii5i",
"44444444<4444444444444444<4444444444444<4<444444<4<44444<4444444",
"3<33333<333333333333333<<333333333333333<33333333<33333<33333333",
"<33u<333333u,333333u<33<333u,333333u,33<333u<333<33u<333333u<333",
"33&,,33333&,,33333&,,3,3,3&,;33333&,,33333&,,33;33&;;33333&,,33,",
";2$$222222$$222222$$222;22$$222222$$222222$$22;;22$$222222$$23;2",
"1111111111111111111111-1111111111111-111111111-11111111111111-1-",
"#++++++#+#+#######+#+#.#.#....#.########+#+##+#+#++++++#+#+#####"
};